<svg xmlns="http://www.w3.org/2000/svg" viewBox="0 0 180.2 187"><defs><style>.cls-1{fill:#fff;}</style></defs><title>3</title><g id="レイヤー_2" data-name="レイヤー 2"><g id="レイヤー_1-2" data-name="レイヤー 1"><path class="cls-1" d="M105.6,3.4a3.9,3.9,0,0,1-2.2,3.1,3.26,3.26,0,0,0-2,2.9V24.8a1.77,1.77,0,0,0,2,2h38a5.6,5.6,0,0,0,4.7-2.7,43,43,0,0,0,3.5-6c1.07-2.2,2.13-4.2,3.2-6s2.33-2.7,3.8-2.7q.6,0,3.8,2.5t6.9,5.8c2.47,2.2,4.76,4.3,6.9,6.3s3.47,3.27,4,3.8a2.7,2.7,0,0,1-2.6,1.6H1a1,1,0,0,1,0-2H72.8c1.07,0,1.76-.67,2.1-2a19,19,0,0,0,.4-5.1q-.1-3.11-.5-6.6c-.27-2.33-.43-4.53-.5-6.6A19,19,0,0,1,74.7,2c.33-1.33,1-2,2.1-2A136.76,136.76,0,0,1,90.7.7q6.9.7,13.9,1.9Zm-89,156.8q1.39,0,6-.3t9.7-.7q5.1-.4,9.3-.9a27.85,27.85,0,0,0,5.2-.9c.93-.4,1.53-.67,1.8-.8s.53-.73.8-1.8a33.47,33.47,0,0,0,.7-4.3q.3-2.7.4-5.7t.2-5.9c.07-1.93.1-3.5.1-4.7l-.6-1.4-.2-.2-1.4-.6a32,32,0,0,0-10.7,2.3q-5.3,2.1-10.4,4.5t-10,4.3A26.18,26.18,0,0,1,8,145a2.5,2.5,0,0,1-.9-.2c-.33-.13-.5-.33-.5-.6a1.59,1.59,0,0,1,1-1.5,13.88,13.88,0,0,0,1.6-.9c1.86-1.07,3.63-2.13,5.3-3.2s3.37-2.13,5.1-3.2l11.3-6.9q5.7-3.5,11.1-7.4a103.47,103.47,0,0,0,10.2-8.4,73.73,73.73,0,0,0,8.8-9.9,28.32,28.32,0,0,0,2.1-3.3A8.2,8.2,0,0,0,64.4,96c0-1.33-.6-2-1.8-2a17.33,17.33,0,0,0-8.2,1.8q-3.4,1.8-6.6,3.9a51.63,51.63,0,0,1-7.2,3.9,24.4,24.4,0,0,1-10,1.8,17.73,17.73,0,0,1-2.3-.1c-.47-.07-1-.63-1.7-1.7-.4-.67-.64-2.3-.7-4.9s-.1-5.43-.1-8.5,0-6,.1-8.8.1-4.8.1-6q-.2-7.61-.4-15.4t-.2-15.4a3.79,3.79,0,0,1,.3-1.5,1.25,1.25,0,0,1,1.3-.7,11.68,11.68,0,0,1,4.2,1.5c2,1,4.26,2.1,6.8,3.3s5.17,2.3,7.9,3.3A22,22,0,0,0,53.4,52h68l2.6-1.2q2.4-2.4,4.7-4.9a55.24,55.24,0,0,0,4.3-5.3l1.2-.6q.8-.41,4.4,1.4a55.28,55.28,0,0,1,7.5,4.6,62.89,62.89,0,0,1,7,5.8q3.1,3,3.1,5a2,2,0,0,1-1,1.8,20.87,20.87,0,0,1-2.1,1.1c-.73.33-1.43.67-2.1,1a1.59,1.59,0,0,0-1,1.5V96c0,.67-.83,1.27-2.5,1.8a37.78,37.78,0,0,1-5.8,1.3q-3.3.5-6.3.8c-2,.2-3.34.3-4,.3h-3.3a2.62,2.62,0,0,1-2.5-1.6,6.72,6.72,0,0,1-.2-3c.13-1.33-.34-2.07-1.4-2.2L105.4,92q-1,0-3.8,2.7t-6,6.2q-3.21,3.5-6.1,6.8a48.13,48.13,0,0,1-4.1,4.3c-.67.53-1.57,1.17-2.7,1.9s-2.27,1.53-3.4,2.4a30.84,30.84,0,0,0-3,2.6,3.67,3.67,0,0,0-1.3,2.5v30.2l.6,1.2,1.2.6a42.4,42.4,0,0,0,8.7-.9q4.31-.9,8.5-1.9t8.5-1.9a42.4,42.4,0,0,1,8.7-.9l.8.8a3.11,3.11,0,0,1-.8,1.2q-3.6,2.4-8.1,4.8t-9.3,4.5q-4.8,2.1-9.6,4t-9,3.3q-11.61,4-22.5,8.8a174.85,174.85,0,0,0-21.3,11.2,6.23,6.23,0,0,0-.7.4,1.25,1.25,0,0,1-.7.2q-.6,0-2.8-3.6t-4.6-8.1q-2.4-4.5-4.4-8.7A25.9,25.9,0,0,1,16,161v-.2ZM50.8,88.8a1.77,1.77,0,0,0,2,2h70.6a1.77,1.77,0,0,0,2-2v-32a1.77,1.77,0,0,0-2-2H52.8a1.77,1.77,0,0,0-2,2ZM106.6,108a12.28,12.28,0,0,1,.1-1.3c.07-.6.3-.9.7-.9q1.39,0,3.8,3.7A88.34,88.34,0,0,1,116,118q2.4,4.8,4.6,9.3a42.76,42.76,0,0,0,3.4,6.1,32.25,32.25,0,0,0,10.6,9,109.08,109.08,0,0,0,14.4,6.7q7.59,2.9,15.3,5.2t13.7,4.3a9.92,9.92,0,0,1,1.4.6,1.29,1.29,0,0,1,.8,1.2,1.61,1.61,0,0,1-.6,1.3c-.4.33-.73.63-1,.9a53.74,53.74,0,0,0-7,7.1A59.8,59.8,0,0,0,166,178c-.13.27-.44.83-.9,1.7s-1,1.73-1.5,2.6a24.65,24.65,0,0,1-1.6,2.3c-.54.67-.94,1-1.2,1-.53,0-1.77-.63-3.7-1.9s-4-2.73-6.2-4.4-4.3-3.3-6.3-4.9l-4-3.2a125.59,125.59,0,0,1-13.1-13,99.37,99.37,0,0,1-10.8-15,77.55,77.55,0,0,1-7.4-16.9A62.66,62.66,0,0,1,106.6,108Zm64.2,10-.6,1-9.9,3.3q-5.7,1.9-11.7,3.5t-11.7,2.8a49,49,0,0,1-9.9,1.2c-1.2,0-1.8-.67-1.8-2,0-.93,1.07-2.77,3.2-5.5s4.53-5.57,7.2-8.5a97.67,97.67,0,0,1,7.9-7.8q3.9-3.41,5.3-3.4c.53,0,1.83.63,3.9,1.9s4.26,2.73,6.6,4.4,4.53,3.3,6.6,4.9,3.5,2.67,4.3,3.2Z"/></g></g></svg>