<svg xmlns="http://www.w3.org/2000/svg" viewBox="0 0 182.75 186.4"><defs><style>.cls-1{fill:#fff;}</style></defs><title>4</title><g id="レイヤー_2" data-name="レイヤー 2"><g id="レイヤー_1-2" data-name="レイヤー 1"><path class="cls-1" d="M1.55,125a3.48,3.48,0,0,1-1.4-1.5c-.4-.73,0-1.1,1.2-1.1H54l.4.4-.2.2-1.4.6Zm14.8-21.4a41.46,41.46,0,0,1-3.7-5.1q-2.7-4.09-5.5-8.6t-5-8.2C.68,79.23,0,77.87.15,77.6l.6-.6a75.34,75.34,0,0,0,12.1-3q5.9-2,11.9-4.1t12-3.6a50.91,50.91,0,0,1,12.4-1.5c1.2,0,1.8.67,1.8,2q0,3-4.1,7.6t-9.4,9.5q-5.3,4.91-10.5,9.4a46.78,46.78,0,0,0-7.2,7.3l-2.2,3Zm59,18.8a7,7,0,0,1,.7-.3,7,7,0,0,0,.7-.3c.4-.27.56-1.5.5-3.7s-.1-4.57-.1-7.1a53.7,53.7,0,0,1,.4-6.9c.26-2.07.93-3.1,2-3.1h24.6a11.2,11.2,0,0,1,3,.8c1.47.53,2.2,1.13,2.2,1.8s-.5,1.3-1.5,1.9a7.44,7.44,0,0,0-2.1,1.7,12.93,12.93,0,0,0-.9,2.7q-.7,2.5-1.5,5.5c-.54,2-1,3.9-1.4,5.7a28,28,0,0,0-.6,3.1,130.61,130.61,0,0,0,1.5,19.8,130.61,130.61,0,0,1,1.5,19.8c0,2.67,0,5.33-.1,8s-.1,5.33-.1,8q0,2-3.3,3.3a37.14,37.14,0,0,1-7.5,2q-4.2.71-8.3,1c-2.74.2-4.57.3-5.5.3a3.33,3.33,0,0,1-1.3-.3,1.1,1.1,0,0,1-.7-1.1V145.8c0-1.07-.6-1.6-1.8-1.6s-3.23.8-6.1,2.4-6.23,3.6-10.1,6-8,5-12.4,7.8-8.84,5.4-13.3,7.8a115.91,115.91,0,0,1-12.9,6,30.66,30.66,0,0,1-10.8,2.4,5.89,5.89,0,0,1-1-.1.64.64,0,0,1-.6-.7,2.16,2.16,0,0,1,.8-1.4l1.2-1.2q4.2-3.6,11.5-9.9T36.85,150q7.5-7,13.6-13.6t7.9-11.2a21.93,21.93,0,0,1,1-2.1c.27-.47,1-.7,2.2-.7ZM9,18.4q-.4-1.39.6-1.5a19.13,19.13,0,0,1,2-.1,42.85,42.85,0,0,1,11,1.6A44.39,44.39,0,0,1,33.65,23a28.88,28.88,0,0,1,8.5,7.5A16.91,16.91,0,0,1,45.55,41a12.89,12.89,0,0,1-3,8.7,10.48,10.48,0,0,1-8.4,3.5,12.48,12.48,0,0,1-8-2.7,28.45,28.45,0,0,1-6-6.6,51,51,0,0,1-4.5-8.4q-1.9-4.5-3.1-7.9-.8-2-2-4.7A25.19,25.19,0,0,1,9,18.4ZM79.75,27a10.42,10.42,0,0,0,.7-4.8q-.11-3.19-.3-6.8c-.13-2.4-.27-4.77-.4-7.1A25,25,0,0,1,80,2.6c.13-.4.3-.93.5-1.6a1.25,1.25,0,0,1,1.3-1,43.73,43.73,0,0,1,5.4.5q3.6.49,7.5,1.2c2.6.47,5.13.93,7.6,1.4a46.26,46.26,0,0,1,5.5,1.3c1.06.27,1.6.73,1.6,1.4q0,1.8-3.9,4t-8.4,4.9a49.35,49.35,0,0,0-7.9,5.8q-3.41,3.11-2.2,6.3l1.2.8c.93,0,2.07,0,3.4.1s2.73.1,4.2.1a26.33,26.33,0,0,0,4.1-.3,6.18,6.18,0,0,0,2.9-1.1A13.87,13.87,0,0,0,105,24q1.39-1.8,2.9-3.7a35.81,35.81,0,0,1,2.9-3.3,3.83,3.83,0,0,1,2.4-1.4,6.5,6.5,0,0,1,2,.4,45.88,45.88,0,0,1,3.9,2.6q3.11,2.2,6.4,4.9t5.9,5.1c1.73,1.6,2.6,2.6,2.6,3a4.09,4.09,0,0,1-1.5,2.5l-2.3,2.3-.6,1.4c0,1.73.07,3.4.2,5s.2,3.27.2,5a17.27,17.27,0,0,1-.9,5.5,17.27,17.27,0,0,0-.9,5.5V91.6c0,1.07-.93,2-2.8,2.8a41.79,41.79,0,0,1-6.5,2.1q-3.7.9-7.2,1.4a42.32,42.32,0,0,1-4.7.5,1.43,1.43,0,0,1-1.4-1.1,12,12,0,0,1-.6-2.6,24.5,24.5,0,0,0-.6-3,6.85,6.85,0,0,0-1.2-2.5,30.75,30.75,0,0,0-3.9-.3c-1.94-.07-4-.1-6.3-.1s-4.47,0-6.6.1-3.73.1-4.8.1a3,3,0,0,0-2.1,1.2,30.32,30.32,0,0,0-2.3,2.9c-.8,1.13-1.63,2.2-2.5,3.2a8.57,8.57,0,0,1-2.5,2.1,30.8,30.8,0,0,1-6.6,2.3,30.54,30.54,0,0,1-7,.9,1.77,1.77,0,0,1-2-2q0-20-.9-39.9t-.9-39.9c0-1.33.53-2,1.6-2a12.18,12.18,0,0,1,4.7,1.5q3.11,1.5,6.4,3.4c2.2,1.27,4.36,2.4,6.5,3.4a12.91,12.91,0,0,0,5,1.5Zm-1,57.4a1.77,1.77,0,0,0,2,2h21.4a1.77,1.77,0,0,0,2-2v-52a1.77,1.77,0,0,0-2-2H80.75a1.77,1.77,0,0,0-2,2Zm20.6-26.8.4.6a10.08,10.08,0,0,1-2.9.3c-1.8.07-3.73.1-5.8.1s-4,0-5.8-.1a10.08,10.08,0,0,1-2.9-.3c0-.27.33-.53,1-.8a4.49,4.49,0,0,1,1.4-.4H98Zm12.2,72.8a10.21,10.21,0,0,1,2.9.8c1.4.53,2.86,1.1,4.4,1.7s3,1.17,4.5,1.7,2.6.93,3.4,1.2a326.68,326.68,0,0,0,35.6,10.6q4.6,1,9.4,1.8A36.68,36.68,0,0,1,181,151a2,2,0,0,0,.7.4c.33.13.5.33.5.6,0,.67-.7,1.7-2.1,3.1l-2.9,2.9q-2.6,2.59-5,5.3a30.78,30.78,0,0,0-4.2,6.1,9.59,9.59,0,0,0-.9,2c-.33.93-.7,1.83-1.1,2.7a19.38,19.38,0,0,1-1.3,2.4c-.47.73-1,1.1-1.5,1.1a2.86,2.86,0,0,1-1.2-.2,132.14,132.14,0,0,1-12.4-6.7q-6.8-4.09-13.5-8.9a157.71,157.71,0,0,1-12.6-10,63.19,63.19,0,0,1-9.5-10.2,17,17,0,0,1-2.6-4.9,20.58,20.58,0,0,1-.6-5.5Zm.4-6.8a1.14,1.14,0,0,1-.8-.4,1.89,1.89,0,0,1,2-1.6h31.2a2.21,2.21,0,0,0,1.8-1.2q3.19-4,6.1-8.1t6.1-8.1l1.2-.6,1.2.4q5.2,4.8,10.6,9.2t11,8.8l.4,1-.6.6Zm22.8-60.8a1.84,1.84,0,0,1,1.8-1.9c1.07-.07,2-.1,2.8-.1a84.21,84.21,0,0,1,11.9,1,52.36,52.36,0,0,1,13,3.6,31.86,31.86,0,0,1,10.4,7,15.09,15.09,0,0,1,4.3,11q0,12.19-12.2,12.2h-2.9a8.08,8.08,0,0,1-2.9-.4,16,16,0,0,1-4.2-3.8q-2.59-3-5.5-6.6c-1.94-2.4-3.73-4.73-5.4-7s-2.9-3.93-3.7-5a53.88,53.88,0,0,0-4-4.8A16.61,16.61,0,0,1,134.75,62.8Zm.8-14.2a22.9,22.9,0,0,1,1.5-3.5c.6-1.13,1.17-2.23,1.7-3.3q1.8-3.79,3.6-7.5t3.4-7.5a58.14,58.14,0,0,0,2.1-6.3,26,26,0,0,1,2.5-6.1,1.92,1.92,0,0,1,1.8-1.2q1.4,0,5.6,2.3t8.7,5.3a74.24,74.24,0,0,1,7.9,6q3.41,3,3.4,4.4c0,.53-.4,1.07-1.2,1.6s-2,1.13-3.9,2.2-4.23,2.23-6.9,3.5-5.53,2.6-8.6,4l-8.5,3.9q-3.9,1.8-6.8,2.9a16.71,16.71,0,0,1-3.5,1.1c-.8,0-1.57,0-2.3-.1S135.15,49.67,135.55,48.6Z"/></g></g></svg>