<svg xmlns="http://www.w3.org/2000/svg" viewBox="0 0 108.4 112.92"><defs><style>.cls-1{fill:#444;}</style></defs><title>black-2</title><g id="レイヤー_2" data-name="レイヤー 2"><g id="レイヤー_1-2" data-name="レイヤー 1"><path class="cls-1" d="M0,51a7.67,7.67,0,0,1,2.4-2.52A24.55,24.55,0,0,0,5.16,46.2,172.12,172.12,0,0,0,20.28,31.68,110.76,110.76,0,0,0,33,15a36.1,36.1,0,0,0,2.34-4.2q1-2.16,2.1-4.32.72-1.44,1.5-2.82A22.05,22.05,0,0,0,40.32.72,2,2,0,0,1,41.64,0a23.64,23.64,0,0,1,3.6.78q3,.78,6.54,1.74l6.78,1.86q3.24.9,4.44,1.26.48.24.48.48,0,.48-.72.78a8.41,8.41,0,0,1-1.68.48l-1.86.36A12,12,0,0,0,58,8,6,6,0,0,0,55.5,10.2q-1.38,1.8-2.88,4t-2.88,4.32q-1.38,2.1-2.22,3.18a46.9,46.9,0,0,1-5.28,5.16q-3.48,3-7.8,6.3t-9.12,6.54Q20.52,43,15.9,45.54a74,74,0,0,1-8.7,4.2A19.15,19.15,0,0,1,.48,51.36.47.47,0,0,1,0,51ZM23.88,94.92l.72-.72a3.2,3.2,0,0,0,.6-.84,9.79,9.79,0,0,0,.6-1.8l1.2-4.2q.72-2.52,1.5-5.46t1.44-5.46q.66-2.52,1.14-4.26t.48-1.86V68.46q0-1.14-1.2-1.14H3.6A2,2,0,0,1,3,67.2q-.36-.12-.36-.36a2,2,0,0,1,.18-.78.66.66,0,0,1,.66-.42h74.4A4,4,0,0,0,81,64.08a24,24,0,0,0,2.46-3.54q1.14-2,2.28-3.78a5,5,0,0,1,2.7-2.28,10.89,10.89,0,0,1,3,1.68q2,1.44,4.2,3.3t4.2,3.66l3,2.64.24.6a1.94,1.94,0,0,1-.54.9,1.39,1.39,0,0,1-1,.42H52.92a1,1,0,0,0-.6.12l-.36.36q-2.88,3.24-5.4,6.66T41.28,81.6A73.8,73.8,0,0,1,35.4,88q-3.12,3-6,6.12l-.24.72a1.17,1.17,0,0,0,1.32,1.32,184.81,184.81,0,0,0,21.12-1.2,184.81,184.81,0,0,1,21.12-1.2q1.08,0,2.4.12a2.06,2.06,0,0,0,2-1,6.25,6.25,0,0,0-1.86-4.5A53.51,53.51,0,0,0,71,84.12a54.19,54.19,0,0,1-4-4q-1.74-1.92-1.14-3.72l.36-.24a57.53,57.53,0,0,1,10.62,3,47.53,47.53,0,0,1,10.56,5.58,32.47,32.47,0,0,1,8.1,8.1,18.12,18.12,0,0,1,3.24,10.56,11.55,11.55,0,0,1-1.92,6.66q-1.92,2.82-6.12,2.82a8.51,8.51,0,0,1-4.44-1,6.59,6.59,0,0,1-2.4-2.52,11.93,11.93,0,0,1-1.2-3.48q-.36-1.92-.9-3.84a19.34,19.34,0,0,0-1.44-3.66,7.87,7.87,0,0,0-2.7-2.94,1,1,0,0,0-.6-.12,7.62,7.62,0,0,0-1.86.36q-1.26.36-2.7.84t-2.76,1l-2,.72q-9.72,3.12-19.5,5.4t-19.62,4.68l-4.14,1a37.61,37.61,0,0,0-4.14,1.2,15.41,15.41,0,0,0-2.76,1.5,5.2,5.2,0,0,1-3,.9q-.72,0-2.4-2.22a59.24,59.24,0,0,1-3.42-5.1Q7,102.72,5.58,100A10.9,10.9,0,0,1,4.2,96.48q0-1.2,1.08-1.2H23Zm56-49.32a1.56,1.56,0,0,1-1.44.84H25a.6.6,0,1,1,0-1.2H57.12A4,4,0,0,0,60,43.62,32.76,32.76,0,0,0,62.76,40l2.4-3.6q1.08-1.62,1.68-1.62a11,11,0,0,1,2.22,1.56q2,1.56,4.32,3.48T77.7,43.5A21,21,0,0,1,79.92,45.6Zm28.32-10.68q-1.92,2.4-4,4.56A52.59,52.59,0,0,0,100.44,44a31.84,31.84,0,0,0-2.16,3.18q-1,1.62-1.92,3.3a1.15,1.15,0,0,1-1.08.72q-2.28,0-5.7-2.28a63.44,63.44,0,0,1-7.32-5.82,104.82,104.82,0,0,1-7.8-7.92q-3.9-4.38-7.08-8.7a66.38,66.38,0,0,1-5.16-8,13.81,13.81,0,0,1-2-6q0-.84,1-.54A10.66,10.66,0,0,1,63.6,13a22.14,22.14,0,0,1,2.46,1.68q1.14.9,1.5,1.14,4.2,2.88,8.52,5.76a57.94,57.94,0,0,0,9,4.92,26.3,26.3,0,0,0,5.52,1.8l6.48,1.44q3.24.72,6.12,1.5a16.51,16.51,0,0,1,4.56,1.86A1.31,1.31,0,0,1,108.24,34.92Z"/></g></g></svg>