<svg xmlns="http://www.w3.org/2000/svg" viewBox="0 0 112.81 111.31"><defs><style>.cls-1{fill:#c45c66;}</style></defs><title>red-1</title><g id="レイヤー_2" data-name="レイヤー 2"><g id="レイヤー_1-2" data-name="レイヤー 1"><path class="cls-1" d="M10.81,74.76l.24.36a8.23,8.23,0,0,1-1.79.24q-1.57.12-3.48.18l-3.54.12A6.79,6.79,0,0,1,.37,75.6,5.24,5.24,0,0,1,0,74.76q-.13-.36.72-.36H10Zm22.56-.36H45.26a1.06,1.06,0,0,0,1.19-1.2V14a1.06,1.06,0,0,0-1.19-1.2H4.7a.53.53,0,0,1-.6-.6.53.53,0,0,1,.6-.6H82.45c.56,0,1.3-.5,2.23-1.5a40.13,40.13,0,0,0,2.76-3.42Q88.81,4.8,90,2.94A28,28,0,0,1,91.81.36L92.53,0l.73.24a28.63,28.63,0,0,0,3,2.46q2.16,1.62,4.5,3.42T105,9.6a8.07,8.07,0,0,1,2.1,2.4l-.24.48-.84.36H63.61a1.06,1.06,0,0,0-1.2,1.2V73.2c0,.88.7,1.34,2.11,1.38a41.3,41.3,0,0,0,4.79-.18c1.8-.16,3.55-.26,5.22-.3s2.84.3,3.49,1a18.86,18.86,0,0,1-3.31.12h-42L32.29,75l.24-.24ZM13.94,110.76a1.49,1.49,0,0,0-.13-.42,1.27,1.27,0,0,1-.11-.42V25.08c0-1.12.55-1.48,1.67-1.08a29.44,29.44,0,0,1,3.54,1.38c1.33.6,2.54,1.1,3.66,1.5a59.13,59.13,0,0,0,9.24,2.58,50.8,50.8,0,0,0,9.6.9,2.34,2.34,0,0,1,2.16,1,4.83,4.83,0,0,1-2.1.3q-1.86.06-4.08.06c-1.48,0-2.87,0-4.19-.06l-2.59-.06a1.06,1.06,0,0,0-1.2,1.2v8.46q0,6.18.06,14.28t0,17q-.06,8.88-.11,16.44c-.05,5-.12,9.28-.25,12.72s-.3,5.36-.54,5.76a4.87,4.87,0,0,1-2.1,2,13.86,13.86,0,0,1-3.06,1.14,19.65,19.65,0,0,1-3.42.54q-1.74.12-2.94.12c-.56,0-1.1,0-1.61.06A2,2,0,0,1,13.94,110.76ZM33.37,52h9.37l.83.36.24.36a7,7,0,0,1-1.92.18c-1.19,0-2.48.06-3.84.06s-2.64,0-3.84-.06a7.1,7.1,0,0,1-1.92-.18l.24-.36Zm32.76,0h10.2l.85.36.23.36a7.83,7.83,0,0,1-2,.18c-1.28,0-2.66.06-4.13.06s-2.87,0-4.14-.06a7.87,7.87,0,0,1-2-.18l.24-.36Zm46.68,22.92a.94.94,0,0,1-.65.78,3.67,3.67,0,0,1-1.14.18c-.57,0-1.67-.08-3.31-.24s-3.32-.26-5-.3a33.33,33.33,0,0,0-4.63.18c-1.36.16-2,.6-2,1.32v20A11.24,11.24,0,0,1,94.28,103a16.13,16.13,0,0,1-4.62,4.62,22.75,22.75,0,0,1-12.48,3.6.86.86,0,0,1-.79-.3c-.11-.2-.26-.46-.42-.78a51.57,51.57,0,0,1-1.86-5.4,17.4,17.4,0,0,0-2.7-5.28q-.24-.36-.78-1.08c-.35-.48-.74-1-1.14-1.5s-.76-1-1.08-1.5a2.39,2.39,0,0,1-.47-1c0-.64.63-.94,1.92-.9s2.65.1,4.13.18a17.36,17.36,0,0,0,4.14-.24,2.11,2.11,0,0,0,1.92-2.28V32.76q0-1.32-2.1-1.44a31.32,31.32,0,0,0-4.67.12c-1.73.16-3.39.3-5,.42s-2.6-.06-3-.54a1.5,1.5,0,0,1,.73-.84L67,30q.84,0,2.58.06t3.66.06c1.28,0,2.47,0,3.55-.12A8.57,8.57,0,0,0,79,29.64a6.47,6.47,0,0,0,1.56-1.32c.88-1.12,1.68-2.22,2.41-3.3a25.69,25.69,0,0,1,2.51-3.18l.6-.24a14.69,14.69,0,0,1,2.76,1.8q2.28,1.68,4.87,3.66t4.73,3.78a12.86,12.86,0,0,1,2.4,2.28l-.36.6a15.41,15.41,0,0,0-1.85.84A6.67,6.67,0,0,0,97,35.76a.53.53,0,0,1-.06.24.52.52,0,0,0,0,.24v32.4a1.58,1.58,0,0,0,.17.72.69.69,0,0,0,.67.36,2.33,2.33,0,0,0,1.79-.78,9.72,9.72,0,0,0,1.27-1.74q.52-1,1-1.74t1-.78c.23,0,.81.42,1.73,1.26s1.92,1.8,3,2.88,2.1,2.14,3.06,3.18,1.6,1.72,1.92,2Z"/></g></g></svg>