<svg xmlns="http://www.w3.org/2000/svg" viewBox="0 0 189.6 187.8"><defs><style>.cls-1{opacity:0.5;}.cls-2{fill:blue;}</style></defs><title>blue-1</title><g id="レイヤー_2" data-name="レイヤー 2"><g id="レイヤー_1-2" data-name="レイヤー 1"><g class="cls-1"><path class="cls-2" d="M61,32.2V153.4a10,10,0,0,1-10,10,10.26,10.26,0,0,1-9.2-5.8H20v2.2a9.9,9.9,0,0,1-10,10,10,10,0,0,1-10-10V32.2a10,10,0,0,1,10-10,9.9,9.9,0,0,1,10,10v.4H41v-.4a9.9,9.9,0,0,1,10-10A10,10,0,0,1,61,32.2ZM20,40.8V91H41V40.8Zm0,108.6H41V99.2H20ZM189.6,71.6a14.08,14.08,0,0,1-14,14.2v-.2a.62.62,0,0,1-.4.2H69.2A4.22,4.22,0,0,1,65,81.6a4.06,4.06,0,0,1,4.2-4h42.2V56.8H89.8a4,4,0,0,1-4-4,4.19,4.19,0,0,1,4-4.2h21.6v-20h-32a4.19,4.19,0,0,1-4.2-4,4.36,4.36,0,0,1,4.2-4.2h32V14A14.08,14.08,0,0,1,125.6,0a13.91,13.91,0,0,1,14,14v6.4h27a9.9,9.9,0,0,1-10-10,10,10,0,0,1,10-10h.4a14.21,14.21,0,0,1,14,14.2,14,14,0,0,1-14,14H139.6v20h21.6c.2,0,.4,0,.4.2v-.2a5.8,5.8,0,0,1-5.8-5.8,6,6,0,0,1,5.8-6,10,10,0,0,1,10,10,9.9,9.9,0,0,1-10,10h-22V77.6h35.6a10,10,0,0,1-10-10,9.9,9.9,0,0,1,10-10h.4A13.91,13.91,0,0,1,189.6,71.6ZM177.8,99.2v70.4a18.2,18.2,0,0,1-36.4,0v-.2a8.37,8.37,0,0,1,8.2-8.2,8.24,8.24,0,0,1,8.2,8.2V152.6h-56v25a10.16,10.16,0,0,1-10,10,10,10,0,0,1-10-10v-78a9.9,9.9,0,0,1,10-10,10.06,10.06,0,0,1,9.8,8H158a10,10,0,0,1,19.8,1.6Zm-20,6.6h-56V121h56Zm0,23.4h-56v15.2h56Z"/></g></g></g></svg>