<svg xmlns="http://www.w3.org/2000/svg" viewBox="0 0 167.64 170.2"><defs><style>.cls-1{opacity:0.5;}.cls-2{fill:red;}</style></defs><title>red-2</title><g id="レイヤー_2" data-name="レイヤー 2"><g id="レイヤー_1-2" data-name="レイヤー 1"><g class="cls-1"><path class="cls-2" d="M167.6,151.6a14.37,14.37,0,0,1-14.4,13c-25,0-48.8-24.8-48.8-63.2s12.6-52-20.6-52a69.36,69.36,0,0,0-25,4.6V156.2a14.08,14.08,0,0,1-14.2,14,13.91,13.91,0,0,1-14-14V75.8a87.42,87.42,0,0,0-16.4,41.4,4.46,4.46,0,0,1-4.2,3.6c-.2,0-.4,0-.4-.2A3.86,3.86,0,0,1,6,116C8.6,95.6,17.4,77,30.4,63.6a.2.2,0,0,1,.2-.2V49.8H10a9.9,9.9,0,0,1-10-10,10,10,0,0,1,10-10,5.9,5.9,0,1,1,0,11.8H30.6V14a13.91,13.91,0,0,1,14-14A14.08,14.08,0,0,1,58.8,14V45.2a78.89,78.89,0,0,1,25-4c46,0,48.8,15,48.8,60.2,0,35.6,7.4,54.8,20.4,55a10.32,10.32,0,0,1-9.2-10.8,10.18,10.18,0,0,1,10.8-9.2A14.13,14.13,0,0,1,167.6,151.6Z"/></g></g></g></svg>