<svg xmlns="http://www.w3.org/2000/svg" viewBox="0 0 180.34 187.6"><defs><style>.cls-1{fill:#fff;}</style></defs><title>1</title><g id="レイヤー_2" data-name="レイヤー 2"><g id="レイヤー_1-2" data-name="レイヤー 1"><path class="cls-1" d="M58.94,177.4a12,12,0,0,0-3.5,2.1,25.32,25.32,0,0,1-3.1,2.3,33.58,33.58,0,0,1-10,4.4,43,43,0,0,1-10.8,1.4,1.77,1.77,0,0,1-2-2V136a7.09,7.09,0,0,0-.5-2c-.34-.93-.74-1.9-1.2-2.9a16.06,16.06,0,0,0-1.5-2.6c-.54-.73-1-1.1-1.4-1.1h-23c-1.47,0-2.1-.57-1.9-1.7s1.1-1.7,2.7-1.7,3.8,0,7,.1,6.76.1,10.7.1h12.2q6.3,0,11.9-.1t9.7-.4a17.37,17.37,0,0,0,5.3-.9,16.92,16.92,0,0,0-.1-4q-.3-3-.9-6.5t-1.4-6.5c-.54-2-.94-3.33-1.2-4-.54-1.2-1.27-1.8-2.2-1.8a28.62,28.62,0,0,0-8.9,1.4,28.71,28.71,0,0,1-8.9,1.4c-.8,0-1.74,0-2.8-.1s-1.6-.7-1.6-1.9q0-11.8-.7-23.5t-.7-23.5c0-1.2.66-1.8,2-1.8a15.51,15.51,0,0,1,6.1,1.7c2.46,1.13,5,2.37,7.5,3.7s5,2.57,7.3,3.7a13.8,13.8,0,0,0,5.5,1.7h62.4c.4,0,1.16-.57,2.3-1.7s2.33-2.4,3.6-3.8a37.81,37.81,0,0,0,3.3-4.2,7.64,7.64,0,0,0,1.4-2.7,6.85,6.85,0,0,0-.4-1.6l-1.4-.8h-106a1.6,1.6,0,0,1,0-3.2h51.2a1.77,1.77,0,0,0,2-2V2a1.77,1.77,0,0,1,2-2q3,0,6.7.1c2.46.07,5,.2,7.6.4s5.13.47,7.6.8a46.85,46.85,0,0,1,6.5,1.3c.93.27,1.4.67,1.4,1.2a1.65,1.65,0,0,1-.8,1.5c-.54.33-1.14.67-1.8,1a8.07,8.07,0,0,0-1.8,1.2,2.38,2.38,0,0,0-.8,1.9V42a1.77,1.77,0,0,0,2,2h18.6l1.4-.6L138.94,30l1.4-.6a16.66,16.66,0,0,1,5.8,1.9,52.94,52.94,0,0,1,6.8,4.1,61.15,61.15,0,0,1,6.2,5,16.12,16.12,0,0,1,3.8,4.8,3.39,3.39,0,0,1-.9,1.5,2.32,2.32,0,0,1-1.7.7h-24.2l-1,.4a2.87,2.87,0,0,0-1,3.5,11.42,11.42,0,0,0,3,3.9,35.2,35.2,0,0,0,5.3,3.9c2.06,1.27,4,2.47,5.8,3.6s3.36,2.17,4.7,3.1,2,1.67,2,2.2-.57,1.5-1.7,2.5-2,1.77-2.5,2.3l-.6,1.4V90.8a4.41,4.41,0,0,1-3.2,4.4,20.1,20.1,0,0,1-4,.8q-3,.41-6.2,1a33.59,33.59,0,0,0-5.6,1.5q-2.4.9-2.4,2.1,0,1.61,2.1,2.4t3.3,1.2l.6.8c-.14.4-.94,1-2.4,1.9s-3.24,1.87-5.3,3-4.3,2.33-6.7,3.6-4.6,2.5-6.6,3.7a55.52,55.52,0,0,0-5.1,3.4q-2.1,1.61-2.1,2.4c-.14,1.2.9,1.87,3.1,2a56.47,56.47,0,0,0,7.4-.1q4.09-.3,7.8-.5c2.46-.13,4,.13,4.5.8a2.57,2.57,0,0,1-2.4,1.6H90.84q-17.91,0-36.1.4c-3.87.13-7.74.17-11.6.1a75.2,75.2,0,0,0-11.6.7c-1.07,0-1.6.4-1.6,1.2q0,2.6,4,4.8a54.12,54.12,0,0,0,9.1,3.9,85,85,0,0,0,10.1,2.7,41.56,41.56,0,0,0,7.2,1q12,0,23.8.1t23.8.7l5.4.4c1.73.13,3.53.2,5.4.2a12.76,12.76,0,0,0,9.1-3.5q3.69-3.5,7.1-6.9l1.4-.6a19.68,19.68,0,0,1,6,1.5,45.4,45.4,0,0,1,6.2,3.1,38.32,38.32,0,0,1,5.6,4.1,24.63,24.63,0,0,1,4.2,4.7,3.15,3.15,0,0,1,.4,1.2,2.48,2.48,0,0,1-.7,1.6,18.57,18.57,0,0,1-1.6,1.6c-.6.53-1.14,1-1.6,1.5a2.1,2.1,0,0,0-.7,1.5v26c0,1.6-1,2.9-3.1,3.9a27.13,27.13,0,0,1-7.1,2.2,53.83,53.83,0,0,1-7.9.8,25.51,25.51,0,0,1-5.7-.3,1.75,1.75,0,0,1-1.6-1.7c-.14-1-.24-2.07-.3-3.2a11.37,11.37,0,0,0-.6-3.1c-.34-.93-1.24-1.4-2.7-1.4q-16.61,0-33.1.7T58.94,177.4ZM5.74,21.4h66.2a.85.85,0,0,1,.6.2l-.4.6-1.4.6h-65l-.8-.8Zm51.8,124a1.77,1.77,0,0,0-2,2v24a1.77,1.77,0,0,0,2,2h68a1.77,1.77,0,0,0,2-2v-24a1.77,1.77,0,0,0-2-2Zm-.6-58a1.77,1.77,0,0,0,2,2l62.6,1.4a1.77,1.77,0,0,0,2-2v-20a1.77,1.77,0,0,0-2-2H58.94a1.77,1.77,0,0,0-2,2Zm22,36.6h22c.93,0,1.7-1.1,2.3-3.3s1.16-4.7,1.7-7.5,1-5.53,1.3-8.2a19.41,19.41,0,0,1,1.1-5.2q.39-1.2,2.1-1.2a25.17,25.17,0,0,1,3.7.3,37.92,37.92,0,0,1,3.9.8,12.54,12.54,0,0,0,2.9.5c1.6,0,2.66-.37,3.2-1.1a3.4,3.4,0,0,0,.7-2.3,4.17,4.17,0,0,0-1-2.3,2.53,2.53,0,0,0-1.9-1.1h-61c-1.2,0-1.8.67-1.8,2q0,3,3.4,4.3t7.4,2.7a37.86,37.86,0,0,1,7.4,3.5c2.26,1.4,3.4,3.7,3.4,6.9a10.28,10.28,0,0,1-.5,2.7c-.34,1.13-.67,2.27-1,3.4s-.6,2.13-.8,3-.17,1.37.1,1.5Zm59.8-103.8a46.44,46.44,0,0,0,3-3.7c1.46-1.93,3-3.93,4.6-6s3.1-3.9,4.5-5.5,2.3-2.4,2.7-2.4,1.83.77,3.9,2.3,4.3,3.3,6.7,5.3,4.66,3.93,6.8,5.8,3.53,3.07,4.2,3.6a3,3,0,0,0,.8.9q.6.49.6.9a1.11,1.11,0,0,1-.7,1.1,3.33,3.33,0,0,1-1.3.3q-8.4,0-16.8.6t-16.8.6q-6.21,0-12.2-.3t-12-.5h-3.4a13.78,13.78,0,0,1-3.4-.4,8.73,8.73,0,0,1-1.2-.5,1.57,1.57,0,0,1-.8-1.1c.26-.27,1.8-.43,4.6-.5s5.9-.1,9.3-.1,6.63,0,9.7.1,5,.1,5.8.1Zm18.8,86.6c1.2,0,3,.77,5.3,2.3a78.16,78.16,0,0,1,7.1,5.3,83.4,83.4,0,0,1,6.6,6.1,23.07,23.07,0,0,1,3.8,4.7c0,.67-.87,1.13-2.6,1.4a49.68,49.68,0,0,1-6,.5q-3.41.11-6.6,0c-2.14-.07-3.6-.1-4.4-.1h-4.2q-3.21,0-6.6-.2t-6-.6c-1.74-.27-2.6-.73-2.6-1.4s.4-1.13,1.2-1.8,1.33-1.13,1.6-1.4a63.09,63.09,0,0,0,6.6-6.8q3-3.6,5.8-7.6Z"/></g></g></svg>