<svg xmlns="http://www.w3.org/2000/svg" viewBox="0 0 184.2 183.2"><defs><style>.cls-1{fill:#fff;}</style></defs><title>2</title><g id="レイヤー_2" data-name="レイヤー 2"><g id="レイヤー_1-2" data-name="レイヤー 1"><path class="cls-1" d="M20.4,32.2c-.27.4-1.3.73-3.1,1s-3.8.47-6,.6S7,34,5,34H1a1,1,0,0,1,0-2H19.2A2.86,2.86,0,0,1,20.4,32.2ZM1.2,162a13,13,0,0,1,2.4-7.5,38.24,38.24,0,0,1,5.8-6.6q3.4-3.1,7-5.8a79,79,0,0,0,6.2-5.1q.6-.6,1.8-2.1c.8-1,1.67-2.07,2.6-3.2s1.83-2.13,2.7-3,1.43-1.3,1.7-1.3c.8,0,1.43.5,1.9,1.5a15.5,15.5,0,0,1,1.1,3.5,27,27,0,0,1,.5,3.9c.07,1.27.1,2.17.1,2.7q0,5.4-.6,11.6a41,41,0,0,1-2.8,11.6,23.18,23.18,0,0,1-6.4,9Q21,174.8,14,174.8q-6,0-9.4-3.4T1.2,162ZM76.8,17.4a26,26,0,0,1,4.3,3Q84.4,23,88,26t6.4,5.8q2.8,2.81,2.8,3.4a1.77,1.77,0,0,1-.5,1.3l-.9.9a32,32,0,0,0-5.5,6.8,64.7,64.7,0,0,0-4.1,8q-1.8,4.2-3.2,8.5c-.93,2.87-1.87,5.63-2.8,8.3a2.28,2.28,0,0,0-.2,1v2.4q0,.8,1.5,2.1a30.94,30.94,0,0,1,3.2,3.3,29,29,0,0,1,3.2,4.7,12.76,12.76,0,0,1,1.5,6.3,13.5,13.5,0,0,1-3.1,8.8,10.17,10.17,0,0,1-8.3,3.8,7.59,7.59,0,0,1-5-1.5,18.17,18.17,0,0,1-3.1-3.3,35,35,0,0,0-2.7-3.3,5.2,5.2,0,0,0-4-1.5,15.6,15.6,0,0,0-6.5,1.9,93.9,93.9,0,0,0-8.4,4.7q-4.5,2.8-9.5,6t-9.9,5.8a50,50,0,0,1-9.4,3.9,17,17,0,0,1-8.3.5l.2-.4c1.47-1.07,2.9-2,4.3-2.9l4.3-2.7q2.2-1.39,7.4-5.3t10.4-8.5a74.11,74.11,0,0,0,8.8-9.1q3.6-4.5,2.6-7.3a8.11,8.11,0,0,0-1.6-1.6c-.93-.8-2-1.7-3.2-2.7S42,72.17,40.9,71.3a27.59,27.59,0,0,1-2.3-1.9,5.9,5.9,0,0,0-3.7.9,5.2,5.2,0,0,0-1.6,2.2,26.34,26.34,0,0,0-.9,2.9,7.32,7.32,0,0,1-1.6,3c-.67.8-2.1,1.33-4.3,1.6a58.49,58.49,0,0,1-7.1.4,63.54,63.54,0,0,1-7.3-.4,19.72,19.72,0,0,1-4.9-1,1.56,1.56,0,0,1-.6-1.5,16.4,16.4,0,0,1,.6-1.7q2-4.8,4.9-10.3t5.6-11.2q2.7-5.7,4.9-11.3a43.22,43.22,0,0,0,2.8-10.4,30.39,30.39,0,0,1,1.5-6.3Q28,23.2,29.3,20.2t2.4-6A39.13,39.13,0,0,0,33.4,8a14.67,14.67,0,0,1,.2-1.9,20.63,20.63,0,0,1,.6-2.7,10.25,10.25,0,0,1,1-2.4,1.68,1.68,0,0,1,1.4-1c.93,0,2.87.07,5.8.2a87.5,87.5,0,0,1,9.1.9,58.69,58.69,0,0,1,8.3,1.8Q63.4,4,63.4,5.8c0,.27-.27.67-.8,1.2s-1.17,1.1-1.9,1.7-1.43,1.2-2.1,1.8A4.05,4.05,0,0,0,57.4,12a19.51,19.51,0,0,0-1.3,2.8c-.6,1.47-1.2,3-1.8,4.7s-1.13,3.27-1.6,4.8a14.09,14.09,0,0,0-.7,2.9c0,2,.47,3.1,1.4,3.3a18.94,18.94,0,0,0,3.8.3,14.16,14.16,0,0,0,6-1.2,20.23,20.23,0,0,0,4.7-3,28.73,28.73,0,0,0,3.9-4.1q1.8-2.3,3.8-4.5ZM38.2,64.2q4,.6,7.8.8t7.8.2h3q.8,0,1.8-2.4c.13-.53.57-2.07,1.3-4.6s1.5-5.2,2.3-8,1.53-5.37,2.2-7.7a33,33,0,0,0,1-3.9V34.8a1.77,1.77,0,0,0-2-2,36.51,36.51,0,0,0-8.2.8,14.47,14.47,0,0,0-5.8,2.7,18,18,0,0,0-4.2,4.9,43.52,43.52,0,0,0-3.4,7.4c-.8,2.13-1.73,4.57-2.8,7.3a24.63,24.63,0,0,0-1.8,7.5ZM117.4,160q4,0,6-2.4a22.32,22.32,0,0,0,3.3-5.4q1.3-3,2.4-6a7.4,7.4,0,0,1,3.3-4.2c1.2-.67,2-.4,2.5.8a14,14,0,0,1,.8,4.5,48.66,48.66,0,0,1-.1,5.4c-.13,1.8-.2,2.9-.2,3.3a2.32,2.32,0,0,0,1.3,2c.87.53,1.87,1.17,3,1.9a11.28,11.28,0,0,1,3,2.9,8.39,8.39,0,0,1,1.3,5,10,10,0,0,1-4.4,8.8,32.08,32.08,0,0,1-10.4,4.5,58,58,0,0,1-12.3,1.7q-6.3.19-10.1.2-8.4,0-16.5.1t-16.5.1a82.44,82.44,0,0,1-8.8-.5,24.93,24.93,0,0,1-8.3-2.3,17.48,17.48,0,0,1-6.2-5Q48,172.21,48,166.8V122.4c0-1.33.8-2,2.4-2h5.4q4,0,8.4.3a49.29,49.29,0,0,1,7.8,1.1c2.27.53,3.4,1.33,3.4,2.4a2.65,2.65,0,0,1-1,2.2,2.65,2.65,0,0,0-1,2.2V156a4.54,4.54,0,0,0,4,4ZM76,109.4h1a84.21,84.21,0,0,1,12.2,1A50.84,50.84,0,0,1,102,114a29,29,0,0,1,10.1,7.1,16.16,16.16,0,0,1,4.1,11.3q0,6.4-3,9T104,144h-3a12.28,12.28,0,0,1-3-.4c-.93-.27-2.3-1.53-4.1-3.8s-3.67-4.87-5.6-7.8-3.73-5.73-5.4-8.4L79.4,118a39.57,39.57,0,0,0-2.6-3.8c-1.2-1.6-1.8-2.87-1.8-3.8Zm30.6-90-.6.6a32.23,32.23,0,0,0-5.1.8,21.82,21.82,0,0,1-5.1.6c-.8,0-1.23-.43-1.3-1.3s.43-1.3,1.5-1.3h10Zm56.8,94q-2.4-.6-6.7-4t-8.8-7.5q-4.5-4.09-8.6-8.1t-6.3-6a1.92,1.92,0,0,0-1.4-.6q-1,0-4.8,2.2t-8.7,4.8Q113.2,96.8,108,99a23.73,23.73,0,0,1-9,2.2,3.38,3.38,0,0,1-1-.2q-.6-.19-.6-.6,0-.8,4.2-3.5t9.1-6.4a80.24,80.24,0,0,0,9.1-8Q124,78.19,124,74a27.18,27.18,0,0,0-1.8-9.6q-1.8-4.8-3.9-9.4t-3.9-9.2a24.63,24.63,0,0,1-1.8-9,5.89,5.89,0,0,1,.1-1c.07-.4.23-.6.5-.6q.8,0,3.2,3.8t5.2,8.6q2.81,4.8,5.8,9.3t5.2,5.7l1.4-.2a39.21,39.21,0,0,0,3.8-7.6q2.2-5.4,4.1-11.6t3.2-11.9a42.12,42.12,0,0,0,1.3-8.5,1.77,1.77,0,0,0-2-2h-31a1.24,1.24,0,0,1-1.4-1.4,1.24,1.24,0,0,1,1.4-1.4h30.2c.67,0,1.73-.7,3.2-2.1s3-2.9,4.6-4.5l4.5-4.5c1.4-1.4,2.37-2.1,2.9-2.1s1.63.83,3.7,2.5,4.3,3.57,6.7,5.7,4.67,4.2,6.8,6.2,3.47,3.27,4,3.8v.8q-1,1.8-3.6,5.9t-6,9.4q-3.41,5.3-7.2,11.1T156.3,61q-3.11,5-5.1,8.5t-2,4.1a3.51,3.51,0,0,0,.4,1.6,22.47,22.47,0,0,1,5,1.8q2.4,1.2,5,2.2,5.6,2.2,11.1,4.5t11.1,4.5l1.6.8a1.44,1.44,0,0,1,.8,1.4,10.31,10.31,0,0,1-2.9,1.9,25.12,25.12,0,0,0-3.1,1.7,30.06,30.06,0,0,0-8.3,8.4,62.27,62.27,0,0,0-5.7,10.4Zm-26.6,9a54.59,54.59,0,0,1,15.6,2.9,53.2,53.2,0,0,1,14.9,7.6,44.06,44.06,0,0,1,11.1,11.7,27.4,27.4,0,0,1,4.4,15.2,17,17,0,0,1-3.3,10.8q-3.3,4.2-10.3,4.2-4.39,0-8.4-4.6a61.58,61.58,0,0,1-7.4-10.8,124,124,0,0,1-6-12.5q-2.6-6.3-4.2-9.7c-.4-.8-1-1.83-1.8-3.1s-1.6-2.6-2.4-4-1.5-2.73-2.1-4a7.59,7.59,0,0,1-.9-2.9Z"/></g></g></svg>