<svg xmlns="http://www.w3.org/2000/svg" viewBox="0 0 109.46 110.52"><defs><style>.cls-1{fill:#4aa9a4;}</style></defs><title>blue-2</title><g id="レイヤー_2" data-name="レイヤー 2"><g id="レイヤー_1-2" data-name="レイヤー 1"><path class="cls-1" d="M32.3,42a5.93,5.93,0,0,0-1.2,3.36,46.51,46.51,0,0,0-.24,4.86q0,2.58.12,5.1a32.09,32.09,0,0,1,0,4A59.69,59.69,0,0,1,29.3,67.2a95.55,95.55,0,0,1-3.54,10.5q-2.22,5.58-5,11.28A71.69,71.69,0,0,1,14.6,99.24a38.93,38.93,0,0,1-6.84,7.44,11.29,11.29,0,0,1-7.14,2.88q-.72,0-.6-.78a1.94,1.94,0,0,1,.36-1q1.56-2.88,3.18-5.64t3.06-5.64A102.14,102.14,0,0,0,15,72.3a127.39,127.39,0,0,0,2.46-25.5q0-1.44-1.68-1.32a26.73,26.73,0,0,0-3.84.6,26.48,26.48,0,0,1-4.08.6,2.06,2.06,0,0,1-2.4-1.44,6,6,0,0,1-.3-2q-.06-1.56-.06-3.3t.06-3.36q.06-1.62.06-2.46-.24-7.56-.42-14.94T4.58,4.2q0-1.2,1-1.2a7.33,7.33,0,0,1,2.7.9q1.86.9,4.08,2a43.67,43.67,0,0,0,4.62,2,12.72,12.72,0,0,0,4.44.9h16.8A3,3,0,0,0,39.8,8a19.78,19.78,0,0,0,2.1-2q1.08-1.2,2-2.28A14.9,14.9,0,0,0,45.14,2h.12a.35.35,0,0,0,.24-.12,1.4,1.4,0,0,1,.36-.24A10.6,10.6,0,0,1,48,3q1.92,1.32,4.26,3.06t4.32,3.3l2.46,1.92.12.24a1.86,1.86,0,0,1-.72,1.08,14.33,14.33,0,0,1-1.26.9q-.66.42-1.2.84a1.17,1.17,0,0,0-.54.9V42.48q0,1-1.74,1.56a24,24,0,0,1-4,1q-2.22.36-4.32.54t-2.82.18a1.29,1.29,0,0,1-1.14-.66,9,9,0,0,1-.72-1.38,14.63,14.63,0,0,0-.66-1.38A1.16,1.16,0,0,0,39,41.64H33.14Zm-14-3.12a1.06,1.06,0,0,0,1.2,1.2H39.38a1.06,1.06,0,0,0,1.2-1.2V11.64a1.06,1.06,0,0,0-1.2-1.2H20.3a2,2,0,0,0-1.32.78,2.2,2.2,0,0,0-.72,1.38Zm31.56,12.6a16.6,16.6,0,0,0,2.4,2.1Q54,55,55.88,56.52t3.36,2.94q1.5,1.38,1.5,1.86,0,.12-.42.48t-1,.78q-.54.42-1.08.78a5.75,5.75,0,0,0-.66.48,12.14,12.14,0,0,0-.6,4.5A44.5,44.5,0,0,1,57,73q-.12,3.6-.54,7.74a71.75,71.75,0,0,1-1.32,8.22,47.23,47.23,0,0,1-2.46,7.86,23.69,23.69,0,0,1-4,6.6,19.16,19.16,0,0,1-5.94,4.56,18.32,18.32,0,0,1-8.28,1.74,1,1,0,0,1-.9-.42,2.66,2.66,0,0,1-.42-1.08,7.37,7.37,0,0,1-.12-1.32v-1a22.42,22.42,0,0,0-.9-4.5,9.21,9.21,0,0,0-2.34-3.78l-.66-.66a1.22,1.22,0,0,1-.3-.9.83.83,0,0,1,.6-.9q.6-.18,1.2-.42a14.48,14.48,0,0,0,6.54-3.6,16.12,16.12,0,0,0,3.54-5.52,23,23,0,0,0,1.44-6.78q.24-3.66.24-7.38,0-1.08.06-2.52t.06-2.94q0-1.5-.06-2.82a11.7,11.7,0,0,0-.3-2.28,1.62,1.62,0,0,0-1-1,5.2,5.2,0,0,0-1.68-.36,9.54,9.54,0,0,0-1.86.06,11.72,11.72,0,0,1-1.5.12l-1-.06q-.78-.06-.78-.54t.9-.72a13.4,13.4,0,0,1,2-.36q1.14-.12,2.22-.18l1.44-.06a3.51,3.51,0,0,0,1.44-.84Q43.46,56,44.6,55l2.22-2.1q1.08-1,1.44-1.38l.84-.24Zm35-40.56a2,2,0,0,1-.78,1q-.54.36-1.14.72a7.47,7.47,0,0,0-1.08.78,1.44,1.44,0,0,0-.48,1.14v62.4A2.72,2.72,0,0,1,79.7,79.2a16.35,16.35,0,0,1-4,1.56,25.9,25.9,0,0,1-4.44.78,10.65,10.65,0,0,1-3.12-.06l-.36-.6q0-15.84-.18-31.5t-.42-31.5q0-2-.12-4T67,10a1.06,1.06,0,0,1,1.2-1.2,66.76,66.76,0,0,1,8,.48q4,.48,7.92,1.08Zm21.72,85.92a9.45,9.45,0,0,1-1.86,5.76,16.52,16.52,0,0,1-4.68,4.26,25,25,0,0,1-6.06,2.7,21.22,21.22,0,0,1-6,1,1,1,0,0,1-.84-.54,4.08,4.08,0,0,1-.54-1.2,14,14,0,0,1-.3-1.38,7.65,7.65,0,0,0-.24-1.08q-.48-2-.9-3.42a10.63,10.63,0,0,0-1.08-2.46,15.2,15.2,0,0,0-1.62-2.16q-1-1.08-2.4-2.52-.24-.24-.78-.84a1.69,1.69,0,0,1-.54-1q0-.6.9-.66t1.26-.06q.72,0,2.28.12a21.89,21.89,0,0,0,3.24,0,12,12,0,0,0,2.94-.54,1.55,1.55,0,0,0,1.26-1.5V1.2A1.06,1.06,0,0,1,91.82,0a73.92,73.92,0,0,1,8.4.48,46.14,46.14,0,0,1,8.16,1.68,4,4,0,0,0,.66.24.56.56,0,0,1,.42.6.77.77,0,0,1-.48.72l-1,.54a10.06,10.06,0,0,0-1,.6,1,1,0,0,0-.42.9Z"/></g></g></svg>