<svg xmlns="http://www.w3.org/2000/svg" viewBox="0 0 109.32 112.08"><defs><style>.cls-1{fill:#e1c96a;}</style></defs><title>yellow-1</title><g id="レイヤー_2" data-name="レイヤー 2"><g id="レイヤー_1-2" data-name="レイヤー 1"><path class="cls-1" d="M.6,50.4a.6.6,0,1,1,0-1.2H45.24a1.06,1.06,0,0,0,1.2-1.2V1.2q0-1.2,1-1.2h1.8l3.54.06q2.7.06,5.58.3a33.51,33.51,0,0,1,5.1.78q2.22.54,2.22,1.38a.86.86,0,0,1-.36.66,7.63,7.63,0,0,1-.84.6,4.72,4.72,0,0,0-.84.66,1.15,1.15,0,0,0-.36.84V47.64a1.06,1.06,0,0,0,1.2,1.2H85.56a3.58,3.58,0,0,0,2.82-1.62,27.15,27.15,0,0,0,2.4-3.72q1.14-2.1,2.22-4a6.42,6.42,0,0,1,2.16-2.46A11.47,11.47,0,0,1,98,39q2.28,1.8,4.8,4.08t4.5,4.2q2,1.92,2,2.28a.69.69,0,0,1-.12.48l-.84.36ZM38.16,7q0,.24-.48.72a32,32,0,0,0-3.84,5q-2.16,3.3-4.62,7.26T24.12,28q-2.64,4.14-5.28,7.56a37.57,37.57,0,0,1-5.16,5.58A7.47,7.47,0,0,1,9,43.32a1,1,0,0,1-1.08-1.08,10.55,10.55,0,0,1,.84-3.3q.84-2.22,1.92-4.68t2.16-4.8a38.93,38.93,0,0,0,1.56-3.78q1.2-3.84,2-7.86t1.44-8q.24-1.8.42-3.66a14.69,14.69,0,0,1,.78-3.54l.36-.72q.12-.24.72-.24a21.08,21.08,0,0,1,3.36.6q2.64.6,5.64,1.44t5.58,1.62a19.11,19.11,0,0,1,3.18,1.14ZM75.6,66.84l6.6-6.6a1.05,1.05,0,0,1,.3-.12,1.05,1.05,0,0,0,.3-.12q.36-.12,2.28,1.26t4.2,3.18q2.28,1.8,4.38,3.42T96.48,70l.36.48v.36l-.36.6-.9.42q-.66.3-1.38.66a11.77,11.77,0,0,0-1.26.72q-.54.36-.54.72V108q0,.6-1.86,1.2a32.37,32.37,0,0,1-4.2,1q-2.34.42-4.62.72a29.56,29.56,0,0,1-3,.3q-1,0-1.44-2a24.27,24.27,0,0,1-.6-4.56q-.12-2.58-.06-5t.06-3.24q0-6.48.18-12.84T77,70.8a1.06,1.06,0,0,0-1.2-1.2H33.24A1.06,1.06,0,0,0,32,70.8V99.24a1.06,1.06,0,0,0,1.2,1.2H73.68a.69.69,0,0,1,.48.24,1.13,1.13,0,0,1-1.2,1H33.6a1.4,1.4,0,0,0-1.44.9,7.73,7.73,0,0,0-.48,2.1q-.12,1.2-.3,2.4a2.56,2.56,0,0,1-1,1.8,13.52,13.52,0,0,1-5.88,2.64,35.52,35.52,0,0,1-6.48.6,1.06,1.06,0,0,1-1.2-1.2L16,62.16A1,1,0,0,1,17,61.08a7.81,7.81,0,0,1,2.1,1q1.74,1,4.08,2.1T28,66.24a11.37,11.37,0,0,0,4.08,1H74.76Zm-31.8-43a8.72,8.72,0,0,1-2,.18q-1.74.06-3.9.06t-4-.12a13.76,13.76,0,0,1-2.22-.24q.12-.36,1.74-.54A32.8,32.8,0,0,1,37,23q2,0,3.78.06a14.69,14.69,0,0,1,2.28.18ZM66.36,24a.69.69,0,0,1-.48-.24q0-1,1.5-1a33.78,33.78,0,0,1,3.42.06q1.92.12,3.78.12a3.62,3.62,0,0,0,2.58-.72,17.86,17.86,0,0,0,2-2.52q1.14-1.68,2.4-3.42t2.52-3.18a6.21,6.21,0,0,1,2.22-1.8.35.35,0,0,0,.24.12.35.35,0,0,1,.24.12q1.08.84,2.22,1.92t2.22,2Q93.6,17.4,96,19.2A52.59,52.59,0,0,1,100.56,23l.24.6-.36.36Z"/></g></g></svg>