<svg xmlns="http://www.w3.org/2000/svg" viewBox="0 0 109.69 111.72"><defs><style>.cls-1{fill:#fff;}</style></defs><title>1</title><g id="レイヤー_2" data-name="レイヤー 2"><g id="レイヤー_1-2" data-name="レイヤー 1"><path class="cls-1" d="M61.8,106.56q0,1.44-1.86,2.46a17.81,17.81,0,0,1-4.26,1.62,33.52,33.52,0,0,1-4.8.84q-2.4.24-3.48.24a1.06,1.06,0,0,1-1.2-1.2V76.92a11.74,11.74,0,0,1,.42-3.18,7.66,7.66,0,0,0,.18-3.18,5.13,5.13,0,0,0-.06-.54q-.06-.42-.3-.42a16.13,16.13,0,0,0-3.3,2.34l-7.2,5.76q-4.26,3.42-9.3,7.5t-9.72,7.5q-4.68,3.42-8.46,5.76T2.88,100.8q-.48,0-.48-.3a1.22,1.22,0,0,1,.24-.66q.24-.36.48-.66t.36-.42q8.16-9.24,16-18.42a115.49,115.49,0,0,0,13.68-20.1q1.08-2.16,2.22-4.38a40.49,40.49,0,0,0,2-4.5,1,1,0,0,0,.12-.6q0-.36-.48-.6a4.28,4.28,0,0,0-1.08-.36,6.11,6.11,0,0,0-1.2-.12h-.84q-8.28-.36-16.32-.18T1.2,49.68a1.13,1.13,0,0,1-1.2-1,.69.69,0,0,1,.48-.24H45a1.06,1.06,0,0,0,1.2-1.2V1.2A1.06,1.06,0,0,1,47.4,0q4.44,0,8.82.42T65,1.56L65.4,2,65,2.76A9,9,0,0,0,63.3,3.84q-1.14.84-1.14,1.56V48.12a5.19,5.19,0,0,0,1.44,3.36q1.44,1.68,2.52,3a131.82,131.82,0,0,0,15.3,15,82.12,82.12,0,0,0,18.3,11.4,24.27,24.27,0,0,0,5,1.62,11.54,11.54,0,0,1,4.5,1.86,1,1,0,0,1,.24,1.56,14,14,0,0,1-3.54,4,25,25,0,0,0-3.9,3.78,21.07,21.07,0,0,0-2.16,2.82q-1,1.5-1.92,2.94a6.55,6.55,0,0,0-.48.54.74.74,0,0,1-.6.3,1.84,1.84,0,0,1-.72-.24,69.85,69.85,0,0,1-9.9-8.52,104.56,104.56,0,0,1-8.4-9.9q-3.9-5.22-7.32-10.8T63.84,59.64l-.48-.36a1.83,1.83,0,0,0-1.32.6l-.24.6ZM10.68,23.28h31.8l.84.36.24.36a10.42,10.42,0,0,1-1.74.18q-1.26.06-2.7.06H34.68q-6.12,0-12-.06t-12-.06l-.48-.48Zm66.24-.72a34.65,34.65,0,0,0,4-5.1,30.84,30.84,0,0,1,4.14-5.1l.72-.24a19.33,19.33,0,0,1,2.88,2q2.28,1.74,4.74,3.78t4.44,3.78q2,1.74,2,2.1a.28.28,0,0,1-.24.3,2,2,0,0,1-.48.06h-34a.57.57,0,0,1-.6-.48q-.12-.48,1-.72a14.67,14.67,0,0,1,5.22-.3,53,53,0,0,0,5.34.3Zm6.84,25.92q1.08,0,2.52-1.8t2.88-4q1.44-2.22,2.7-4t1.86-1.8a7.32,7.32,0,0,1,2.46,1.5q2,1.5,4.32,3.48t4.38,3.78q2,1.8,2.64,2.28a3,3,0,0,1,.66.54q.42.42.42.66a.47.47,0,0,1-.36.48,2,2,0,0,1-.6.12H68a2.3,2.3,0,0,1-.72-.18,4.11,4.11,0,0,1-.84-.42,1,1,0,0,1-.42-.42q-.06-.18.66-.18Z"/></g></g></svg>