<svg xmlns="http://www.w3.org/2000/svg" viewBox="0 0 109.44 111.72"><defs><style>.cls-1{fill:#fff;}</style></defs><title>2</title><g id="レイヤー_2" data-name="レイヤー 2"><g id="レイヤー_1-2" data-name="レイヤー 1"><path class="cls-1" d="M.24,57.36,0,57a.49.49,0,0,1,.36-.12q1.2,0,4.08-.06T11,56.76q3.66,0,7.62-.06t7.38,0l5.82.12a20.66,20.66,0,0,1,2.88.18l-.84.36a2.59,2.59,0,0,0-1,.18,2.59,2.59,0,0,1-1,.18H1.08ZM46.32,74a32.39,32.39,0,0,0-4.14,3.48q-2.22,2.16-4,3.84Q35.52,83.76,31,87.6t-9.54,7.5a87.07,87.07,0,0,1-10,6.3Q6.6,104,3.12,104a8.41,8.41,0,0,1-.9-.06.57.57,0,0,1-.54-.66q0-.48,1.62-2.16T7,97.5q2-2,4-3.78t2.52-2.4q3-2.88,6.18-6.12t6.12-6.66q2.94-3.42,5.52-7.08A42.78,42.78,0,0,0,35.52,64a31.51,31.51,0,0,0,1-3.12,31.51,31.51,0,0,1,1-3.12,2,2,0,0,1,1.92-1.26,24.21,24.21,0,0,1,2.94.06,20.22,20.22,0,0,0,2.64.06,1.1,1.1,0,0,0,1.14-1.26V1.2A1.06,1.06,0,0,1,47.4,0q4.44,0,8.82.42T65,1.56L65.4,2,65,2.76A9,9,0,0,0,63.3,3.84q-1.14.84-1.14,1.56V56.64a5.16,5.16,0,0,0,1.38,2.94,36.71,36.71,0,0,0,3.24,3.54q1.86,1.8,3.72,3.36t2.82,2.4a75.93,75.93,0,0,0,16.8,11A151.58,151.58,0,0,0,109,87.24l.48.48a7.39,7.39,0,0,1-1.86,2.76q-1.5,1.56-3.24,3.24T101,97.08A10.18,10.18,0,0,0,99,100a3.67,3.67,0,0,0-.24.78,7.59,7.59,0,0,1-.3,1,2,2,0,0,1-.42.72q-.24.24-.72,0a54.08,54.08,0,0,1-5.64-3.6q-3-2.16-5.94-4.68t-5.58-5.1a43.83,43.83,0,0,1-4.44-5,26.67,26.67,0,0,1-2.82-4.8q-1.5-3.12-3.24-6.24t-3.48-5.76a10.29,10.29,0,0,0-3.3-3.48.53.53,0,0,1-.24-.06.53.53,0,0,0-.24-.06,1.62,1.62,0,0,0-1.08,1.56v41.28a3,3,0,0,1-1.8,2.58,15.29,15.29,0,0,1-4.2,1.56,40,40,0,0,1-4.8.78q-2.4.24-3.48.24a1.06,1.06,0,0,1-1.2-1.2q0-8.52.18-16.92t.78-16.92a5.24,5.24,0,0,1,.12-1.14,1.91,1.91,0,0,0-.12-1.14ZM5.88,20.88h36.6l.84.36.24.36a.49.49,0,0,1-.36.12H5.88l-.48-.48ZM23.76,49q-.24-.72-1.14-4.08T20.7,37.8q-1-3.72-1.8-6.84t-.78-3.36q0-1.2,1.08-1.2a15.4,15.4,0,0,1,6.24,1.5,25.58,25.58,0,0,1,6.18,3.9,23.64,23.64,0,0,1,4.74,5.46,11.35,11.35,0,0,1,1.92,6.06q0,4-2.16,5.82a9.1,9.1,0,0,1-4.74,2.22A11.25,11.25,0,0,1,26.46,51Q24.12,50.28,23.76,49Zm81.6-27.6q0,.72-.6.72H78.6a1.59,1.59,0,0,0-1.26.66A1.7,1.7,0,0,1,76,23.4a14.05,14.05,0,0,0-5.22-1.2q-2.82-.12-5.46-.48a.48.48,0,0,1-.48-.24,1.13,1.13,0,0,1,1.2-1H80.88l.84-.36a34.65,34.65,0,0,0,4-5.1A30.84,30.84,0,0,1,89.88,10l.72-.24a19,19,0,0,1,2.7,1.74q2.1,1.5,4.5,3.3t4.5,3.48q2.1,1.68,2.7,2.28ZM94.56,44.88a12.71,12.71,0,0,1,2.58,1.5q1.62,1.14,3.3,2.52t3.18,2.76q1.5,1.38,2.46,2.22l.6.54,1,.9a9.51,9.51,0,0,1,.9.9q.36.42.36.54a1.07,1.07,0,0,1-.6.72,2.13,2.13,0,0,1-1,.24H69.48a5.13,5.13,0,0,1-1.5-.36,14.23,14.23,0,0,1-1.5-.6q.36-.36,2.82-.3t5.46.18q3,.12,5.7.12A10.91,10.91,0,0,0,84,56.4,8.38,8.38,0,0,0,86.76,54a40.94,40.94,0,0,0,2.52-3.6,30,30,0,0,1,2.52-3.48A6.35,6.35,0,0,1,94.56,44.88ZM68.52,51a18.85,18.85,0,0,1,1-4.08q.72-2,1.32-4.08,1-3.12,1.74-6.12t1.62-6.12q.36-1.08.66-2.34a13.38,13.38,0,0,1,.78-2.34,3.15,3.15,0,0,1,.36-.54.65.65,0,0,1,.48-.3q.12,0,2.52.9t5.28,2.1l5.34,2.22a28.71,28.71,0,0,1,2.82,1.26,3.13,3.13,0,0,0,.66.48.92.92,0,0,1,.06,1.5,6.71,6.71,0,0,0-.72.42,28.74,28.74,0,0,0-5.52,4.5q-2.76,2.82-5.64,5.64a48.41,48.41,0,0,1-5.94,5,12.44,12.44,0,0,1-6.3,2.4Z"/></g></g></svg>