<svg xmlns="http://www.w3.org/2000/svg" viewBox="0 0 108.36 110.16"><defs><style>.cls-1{fill:#fff;}</style></defs><title>1</title><g id="レイヤー_2" data-name="レイヤー 2"><g id="レイヤー_1-2" data-name="レイヤー 1"><path class="cls-1" d="M26.52,85.68q-1.68,1.8-3.6,4.14t-3.84,4.86q-1.92,2.52-3.6,5t-3,4.68l-1,1.56a19.63,19.63,0,0,1-1.32,1.86,14.67,14.67,0,0,1-1.5,1.62,2.27,2.27,0,0,1-1.5.72l-1.38-2.7q-1.14-2.22-2.4-4.8T1.2,98a14.61,14.61,0,0,1-1-2.34q0-1,2-1.68t4.32-1.38q2.34-.66,4.32-1.38t2-1.68V55q0-1.32-2-1.38a43.36,43.36,0,0,0-4.44.12Q4,53.88,2,53.94t-2-1q0-.6,1.32-.78a22.39,22.39,0,0,1,3-.18q1.68,0,3.24.12t2.16.12q.36,0,1.38-1.38t2.28-3.12q1.26-1.74,2.46-3.36a9.4,9.4,0,0,1,1.92-2.1l.84.24a27.68,27.68,0,0,0,3.24,2.64q2.16,1.56,4.44,3.3t4.14,3.3a7.48,7.48,0,0,1,2.22,2.52q-.12.6-1,.78l-2,.42a10.87,10.87,0,0,0-1.92.6,1.32,1.32,0,0,0-.84,1.32V84.84ZM8.52,6a30.73,30.73,0,0,1,7,1.14A28.55,28.55,0,0,1,22.38,10a17.19,17.19,0,0,1,5.28,4.74,11.1,11.1,0,0,1,2.1,6.72,8.46,8.46,0,0,1-1.92,5.64,6.67,6.67,0,0,1-5.4,2.28,6.64,6.64,0,0,1-3.3-.84,10.36,10.36,0,0,1-2.64-2.1,14.26,14.26,0,0,1-2-2.82q-.84-1.56-1.44-3a44.84,44.84,0,0,1-1.68-4.38Q10.68,14,9.84,11.88q-.48-1.32-1-2.7A14.57,14.57,0,0,1,8,6.48ZM29.16,88.56a9.85,9.85,0,0,1,2,.84l2.16,1.08q1.44.6,3.36,1.44t3.9,1.62a40.75,40.75,0,0,0,3.9,1.32A13,13,0,0,0,48,95.4h58.8a4.71,4.71,0,0,1,1,.12.65.65,0,0,1,.54.72,1.6,1.6,0,0,1-.18.72,2.28,2.28,0,0,1-.42.6,27.28,27.28,0,0,0-2.94,5.28q-1,2.52-2.22,5.52a2.78,2.78,0,0,1-.36.6,1.38,1.38,0,0,0-.42.12,1.38,1.38,0,0,1-.42.12l-44.52-.6a32,32,0,0,1-8.76-1.38,38.75,38.75,0,0,1-9.06-3.9,26.81,26.81,0,0,1-7.2-6.12A13.75,13.75,0,0,1,28.68,89Zm67.2-54.84a16.65,16.65,0,0,0,2.88,2.16q1.92,1.2,3.9,2.58a28.76,28.76,0,0,1,3.48,2.82,4.09,4.09,0,0,1,1.5,2.88q0,.6-1,1.14a1.59,1.59,0,0,0-1,1.38V81.36a6,6,0,0,1-1.68,4.2,14.47,14.47,0,0,1-4,3A22.95,22.95,0,0,1,90.84,91q-1,0-1.32-1.2a13,13,0,0,1-.6-2.4,11.94,11.94,0,0,0-.36-1.8,8.93,8.93,0,0,0-.72-1.74,14.55,14.55,0,0,0-1.56-2.22,3.93,3.93,0,0,0-.48-.6,1.17,1.17,0,0,1-.24-.84q0-.6,1-.66t2.22-.18A7.85,7.85,0,0,0,91,78.78a1.79,1.79,0,0,0,1-1.86V45a1.06,1.06,0,0,0-1.2-1.2H50.4A1.06,1.06,0,0,0,49.2,45V85.32c0,.72-.51,1.3-1.51,1.74a18.3,18.3,0,0,1-3.52,1.08,27.24,27.24,0,0,1-3.87.54c-1.26.08-2.16.12-2.73.12a1.06,1.06,0,0,1-1.21-1.2V57.72a2.49,2.49,0,0,0-.66-1.62A2.63,2.63,0,0,1,35,54.36a2.45,2.45,0,0,1,.42-1.44,2.45,2.45,0,0,0,.42-1.44V37.32a2.26,2.26,0,0,1,.18-.9.77.77,0,0,1,.79-.42,6.24,6.24,0,0,1,2.06.84c1.06.56,2.15,1.12,3.28,1.68a14.29,14.29,0,0,0,3,1.14c.84.2,1.27-.06,1.27-.78q0-8.88-.36-17.7t-.36-17.7a1.06,1.06,0,0,1,1.2-1.2,9.42,9.42,0,0,1,3.66.78q1.86.78,3.54,1.68t3.36,1.62a8,8,0,0,0,3.12.72q4.44,0,8.76.36t8.76.36A3.65,3.65,0,0,0,80.7,6.72a15.81,15.81,0,0,0,2.1-2.46q1-1.38,1.86-2.64A4.28,4.28,0,0,1,86.52,0a18,18,0,0,1,2.22,1.32q1.86,1.2,4,2.64t4,2.76a12.17,12.17,0,0,1,2.1,1.68,2.79,2.79,0,0,1,.48.72,1.42,1.42,0,0,1-.78.84l-1.38.78a6.47,6.47,0,0,0-1.32,1,2,2,0,0,0-.6,1.44q0,5,.36,9.84T96,32.88ZM87.12,55.2A9.67,9.67,0,0,1,86,56.4a2,2,0,0,0-.78,1.32v15.6q0,.72-1,1.14a13.66,13.66,0,0,1-2.16.72,16.76,16.76,0,0,1-2.4.42q-1.2.12-1.68.12a4.6,4.6,0,0,1-2.1-.36,2.51,2.51,0,0,1-1-.84l-.54-.84a.93.93,0,0,0-.84-.36H68.4q-.72,0-.9.3a6.66,6.66,0,0,0-.42.9q-.48,2.16-.84,3.48a4.62,4.62,0,0,1-1.14,2.1,4.25,4.25,0,0,1-2.16,1.08,17.89,17.89,0,0,1-3.66.3,10.64,10.64,0,0,1-1.62-.12q-.78-.12-.78-1.2L56,49a1.29,1.29,0,0,1,.24-.72.71.71,0,0,1,.6-.36,8.32,8.32,0,0,1,3.42.78q1.74.78,3.6,1.68T67.62,52a10.71,10.71,0,0,0,3.9.72,5,5,0,0,0,2.7-.72,11.73,11.73,0,0,0,2-1.62q.9-.9,1.56-1.68a1.78,1.78,0,0,1,1.26-.78,4.58,4.58,0,0,1,2.16.78,18.19,18.19,0,0,1,2.58,1.86,24.08,24.08,0,0,1,2.28,2.22,4.12,4.12,0,0,1,1.14,2ZM59.28,40.56q0,.48.84.72a7.8,7.8,0,0,0,3.84,0q.84-.24.84-.72V18.72q0-1.08,1-1.08a7.39,7.39,0,0,1,3.12.72q1.56.72,3.12,1.56t3.12,1.56a7.65,7.65,0,0,0,3.24.72A13.12,13.12,0,0,0,80.52,22q1.08-.18,1.08-1.74V10.56a1.06,1.06,0,0,0-1.2-1.2H60.48a1.06,1.06,0,0,0-1.2,1.2ZM67.2,55.44V69.72a1.06,1.06,0,0,0,1.2,1.2H74a1.06,1.06,0,0,0,1.2-1.2V55.44q0-.72-.9-1a7.73,7.73,0,0,0-2-.36,20.55,20.55,0,0,0-2.22,0q-1.08.06-1.56.06l-.84.36-.12.12Zm14-14.4a1.4,1.4,0,0,1,.24-.36.49.49,0,0,0,.12-.36v-15a.67.67,0,0,0-.6-.72,5.56,5.56,0,0,0-1.08-.12q-.36,0-1-.06a6.63,6.63,0,0,0-1.26,0,4.39,4.39,0,0,0-1.14.24.66.66,0,0,0-.48.66V40.56a1,1,0,0,0,.66,1,3,3,0,0,0,1.5.24,9.34,9.34,0,0,0,1.74-.3A4.59,4.59,0,0,0,81.24,41Z"/></g></g></svg>