<svg xmlns="http://www.w3.org/2000/svg" viewBox="0 0 109.13 109.56"><defs><style>.cls-1{fill:#fff;}</style></defs><title>2</title><g id="レイヤー_2" data-name="レイヤー 2"><g id="レイヤー_1-2" data-name="レイヤー 1"><path class="cls-1" d="M6.12,91.08a.76.76,0,0,1,.42-.78,2.26,2.26,0,0,1,.9-.18H27.72q.36,0,.9-1.26a28.34,28.34,0,0,0,1-2.82q.48-1.56.9-3.06t.54-2q1.2-4.56,2.34-9.18t2.1-9.18q.6-2.52,1.08-5a27.52,27.52,0,0,0,.48-5.16,1.06,1.06,0,0,0-1.2-1.2H1.2a1.13,1.13,0,0,1-1.2-1A.69.69,0,0,1,.48,50H44.16a1.06,1.06,0,0,0,1.2-1.2V1.2A1.06,1.06,0,0,1,46.56,0q4.08,0,8.34.18a42.41,42.41,0,0,1,8.22,1.14q.36.12.78.3a.66.66,0,0,1,.42.66,2.18,2.18,0,0,1-.72,1.26,7.26,7.26,0,0,1-1.08,1l-.36.84V48.48a1.06,1.06,0,0,0,1.2,1.2H82.92a3.72,3.72,0,0,0,2.46-1.5,30.89,30.89,0,0,0,2.7-3.42q1.32-1.92,2.4-3.84A27.74,27.74,0,0,1,92.28,38l.72-.36a28.33,28.33,0,0,1,3,2q2.28,1.68,4.86,3.72t4.86,4L108.84,50a1,1,0,0,1,.18,1.14,1.19,1.19,0,0,1-1.14.54h-46a1.3,1.3,0,0,0-1,.36A28.68,28.68,0,0,0,56.1,57.9q-2.1,3.3-4.38,6.3-3.12,4-6.24,7.86T39.12,79.8q-2,2.4-4.14,4.62a25.39,25.39,0,0,0-3.66,5l.12.72.84.36a124.82,124.82,0,0,0,16-1q7.92-1,15.84-1.86,2.52-.24,5.1-.36l5.1-.24q1.32-.12,2.58-.12a12.51,12.51,0,0,0,2.46-.24q1.2-.24,1.2-1.2V84.6a2.75,2.75,0,0,0-.24-.84,11.42,11.42,0,0,0-2.88-3.84q-2.16-2-4.38-4.26a55.19,55.19,0,0,1-4-4.38,6.65,6.65,0,0,1-1.74-4.08q0-.72.48-.78a7.73,7.73,0,0,1,1-.06,27.26,27.26,0,0,1,7.8,1.26,42.75,42.75,0,0,1,8.34,3.54,56.65,56.65,0,0,1,8,5.34,46.18,46.18,0,0,1,6.78,6.6,33.83,33.83,0,0,1,4.74,7.44,18,18,0,0,1,1.38,11.7,9.7,9.7,0,0,1-1.44,3.42,7.62,7.62,0,0,1-2.64,2.4,7.92,7.92,0,0,1-3.9.9,8.4,8.4,0,0,1-5.34-1.56,11.86,11.86,0,0,1-3.18-3.84,23.54,23.54,0,0,1-1.92-5q-.72-2.76-1.44-5a13.2,13.2,0,0,0-1.86-3.84A3.6,3.6,0,0,0,81,88.08h-.36a24.9,24.9,0,0,0-5,1.32q-2.58,1-5,1.68-5.28,1.68-10.32,3.54T50,98.16q-5.16,1.68-10.32,3.24t-10.44,3q-2.28.6-5.1,1.14a17.33,17.33,0,0,0-4.86,1.62,7.69,7.69,0,0,0-1.74,1.44,2.58,2.58,0,0,1-1.86,1,1.49,1.49,0,0,1-1.08-.48,16.25,16.25,0,0,1-1.56-2.88q-1.2-2.52-2.58-5.58T7.86,94.8Q6.6,92,6.12,91.08Zm2.64-67.8L9,22.8l.84-.36h32a2.07,2.07,0,0,1,1.44.72q-4.56.24-8,.3t-7.62.18l-7.86.24q-3.72.12-6.48.18l-3.48.06L9,23.76v-.12Zm69-1.56a23,23,0,0,0,1.8-2.34q1.32-1.86,2.82-3.9t2.82-3.6q1.32-1.56,1.68-1.56.6,0,3.12,1.8t5.22,4.08q2.7,2.28,4.86,4.26t2.16,2.34a.38.38,0,0,1-.24.36,1.07,1.07,0,0,1-.48.12h-36A.69.69,0,0,1,65,23q.12-.6,1.74-.84A25.15,25.15,0,0,1,70.44,22q2,0,4,.06l2.52.06Z"/></g></g></svg>