<svg xmlns="http://www.w3.org/2000/svg" viewBox="0 0 232.67 410.4"><defs><style>.cls-1{fill:#e5b8bd;}</style></defs><title>0_bg</title><g id="レイヤー_2" data-name="レイヤー 2"><g id="レイヤー_1-2" data-name="レイヤー 1"><path class="cls-1" d="M232.67,141.36V273.19q0,44.93-4.89,65.43T207.52,377a87.32,87.32,0,0,1-37.11,25.64q-21.74,7.8-48.58,7.81-35.42,0-58.84-8.18T25.63,376.71a109.41,109.41,0,0,1-19.77-36.5Q0,321,0,279.3V141.36Q0,86.91,9.4,59.81T46.75,16.36Q74.71,0,114.5,0,147,0,172.61,11.35t38.33,27.71a91.53,91.53,0,0,1,17.21,36.87Q232.67,96.43,232.67,141.36ZM134,108.15q0-31.49-3.05-39.42T116.7,60.79q-11,0-14.53,8.42t-3.54,38.94V301q0,34.41,3.3,41.5t14.28,7.08c7.33,0,12.12-2.77,14.41-8.3S134,323.33,134,304Z"/></g></g></svg>