<svg xmlns="http://www.w3.org/2000/svg" viewBox="0 0 236.08 402.83"><defs><style>.cls-1{fill:#4a3f55;}</style></defs><title>5</title><g id="レイヤー_2" data-name="レイヤー 2"><g id="レイヤー_1-2" data-name="レイヤー 1"><path class="cls-1" d="M216.8,0V63.23H94.48v67.14q23-27.11,59.08-27.1,40.77,0,61.65,22.83t20.87,87.77v56.39q0,42-4,61.65a86.24,86.24,0,0,1-17.22,36.38Q201.66,385,178.1,393.92t-57.49,8.91q-38.1,0-67.14-13.3T12.21,349.85Q0,323.49,0,268.31V246.83H98.63v24.65q0,38.34,2.69,54.45T119.87,342q7.34,0,11.84-4.64a15.82,15.82,0,0,0,4.89-10q.36-5.37.85-46.63V202.39q0-22.21-4.64-30.27t-15.38-8.06A16.59,16.59,0,0,0,106,168.21a19,19,0,0,0-6,8.91q-1.35,4.77-1.35,22.1H1L5.13,0Z"/></g></g></svg>