<svg xmlns="http://www.w3.org/2000/svg" viewBox="0 0 187 187.6"><defs><style>.cls-1{fill:#fff;}</style></defs><title>1</title><g id="レイヤー_2" data-name="レイヤー 2"><g id="レイヤー_1-2" data-name="レイヤー 1"><path class="cls-1" d="M173,28.2V28H108V50.6h54.4a10,10,0,0,1,19,4.2V167.6a20,20,0,0,1-40,0,10,10,0,0,1,10-10,9.9,9.9,0,0,1,10,10V58.8H108V173.2a14.25,14.25,0,0,1-14.2,14.2,14.08,14.08,0,0,1-14-14.2V58.8H26.2V177.4a10.16,10.16,0,0,1-10,10,10,10,0,0,1-10-10V54.8a10,10,0,0,1,19-4.2H79.8V28H4.2A4.06,4.06,0,0,1,0,24a4.22,4.22,0,0,1,4.2-4.2H172a9.67,9.67,0,0,1-9-9.8A9.9,9.9,0,0,1,173,0a13.91,13.91,0,0,1,14,14A14.08,14.08,0,0,1,173,28.2ZM62,102a14.19,14.19,0,0,1-20,.4,9.84,9.84,0,0,1-.4-14A10.08,10.08,0,0,1,55.8,88l-.6-.6L41,73.8a4,4,0,0,1-.2-5.6,3.94,3.94,0,0,1,5.8-.2L61,81.6l.4.4A14.38,14.38,0,0,1,62,102Zm0,46a14,14,0,0,1-20,.6A10,10,0,1,1,55.8,134c-.2-.2-.4-.2-.6-.4L41,120a4.1,4.1,0,0,1,5.6-6L61,127.6c.2.2.2.4.4.6A14.13,14.13,0,0,1,62,148Zm76.2-60-.6-.6L123.4,73.8a3.87,3.87,0,0,1-.2-5.6A3.94,3.94,0,0,1,129,68l14.4,13.6c0,.2.2.2.4.4a14.19,14.19,0,0,1,.4,20,13.94,13.94,0,0,1-19.8.4,9.84,9.84,0,0,1-.4-14A10.08,10.08,0,0,1,138.2,88Zm6,60a13.77,13.77,0,0,1-19.8.6A10,10,0,0,1,138.2,134c-.2-.2-.4-.2-.6-.4L123.4,120a4.11,4.11,0,0,1-.2-5.8,4.31,4.31,0,0,1,5.8-.2l14.4,13.6c0,.2.2.4.4.6A14,14,0,0,1,144.2,148Z"/></g></g></svg>