<svg xmlns="http://www.w3.org/2000/svg" viewBox="0 0 167.6 151.27"><defs><style>.cls-1{fill:#fff;}</style></defs><title>no</title><g id="レイヤー_2" data-name="レイヤー 2"><g id="レイヤー_1-2" data-name="レイヤー 1"><path class="cls-1" d="M116.2,150.4a18.22,18.22,0,0,1-11.4-34.6,14.15,14.15,0,0,1,12,25.4c11.6-6.6,22.6-34.8,22.6-66,0-38.6-22.4-67-55.6-67s-55.6,39.4-55.6,78c0,20.4,4.4,55.2,17,56.4C83,127.2,88.4,61,83.8,29.2a14.12,14.12,0,1,1,28-3.6,13.2,13.2,0,0,1,.2,2.8C111.4,67.2,93.8,140,46.8,150.6a1.2,1.2,0,0,1-.8.2c-25.2,0-46-26.4-46-64.6C0,41,37.8,0,83.8,0s83.8,30,83.8,75.2C167.6,111.2,140.2,146.6,116.2,150.4Z"/></g></g></svg>