<svg xmlns="http://www.w3.org/2000/svg" viewBox="0 0 165.2 163.82"><defs><style>.cls-1{fill:#fff;}</style></defs><title>ti</title><g id="レイヤー_2" data-name="レイヤー 2"><g id="レイヤー_1-2" data-name="レイヤー 1"><path class="cls-1" d="M165.2,120.31c0,29.4-37.8,47.39-107.4,42.8a18.2,18.2,0,1,1,0-36.4A14.25,14.25,0,0,1,72,140.91a14.08,14.08,0,0,1-14.2,14c45.2,0,79.2-9.39,79.2-34.59h-.2c0-9.6-.4-35.4-40.8-35.2-9.8,0-25.6,1-38.6,6.2a14,14,0,0,1-13,8.6,15.44,15.44,0,0,1-3-.4,14.16,14.16,0,0,1-10.8-16.8L38,49.11H4.2a4.06,4.06,0,0,1-4.2-4,4.22,4.22,0,0,1,4.2-4.2H39.6l6.6-29.8a14,14,0,1,1,27.4,6l-5,23.8h72a10,10,0,0,1-10-10,10.16,10.16,0,0,1,10-10,14.25,14.25,0,0,1,14.2,14.2,14,14,0,0,1-13.2,14H66.8l-7,32.6a66.66,66.66,0,0,1,10-2.4A132.76,132.76,0,0,1,96,76.91c58-1.2,69,31.6,69,43.4Z"/></g></g></svg>