<svg xmlns="http://www.w3.org/2000/svg" viewBox="0 0 108.84 112.08"><defs><style>.cls-1{fill:#e1c96a;}</style></defs><title>yellow-1</title><g id="レイヤー_2" data-name="レイヤー 2"><g id="レイヤー_1-2" data-name="レイヤー 1"><path class="cls-1" d="M.36,25.68H3.3q2.34,0,5.46-.06t6.66-.06q3.54,0,6.48.06t4.92.06a7.94,7.94,0,0,1,2.1.12,6.58,6.58,0,0,0-.84.36,1.93,1.93,0,0,1-.84.24H.36L0,26ZM70.44,82.92q.48,1.68,3.36,3.24a41,41,0,0,0,7,2.88q4.14,1.32,8.82,2.52t8.82,2.22q4.14,1,7,2t3.36,1.8q0,.48-.72,1a36.59,36.59,0,0,0-4,3.18q-1.44,1.38-2.64,2.76a29.51,29.51,0,0,0-2.28,3q-1.08,1.62-2.88,4a1.18,1.18,0,0,1-1.08.6,18.25,18.25,0,0,1-8.16-2.34,71,71,0,0,1-9.06-5.58q-4.5-3.24-8.58-6.72t-6.72-5.88a1.15,1.15,0,0,0-.84-.36,8.86,8.86,0,0,0-3.72,1.44q-2.52,1.44-5.88,3.54l-7.26,4.56q-3.9,2.46-7.8,4.56a76.86,76.86,0,0,1-7.44,3.54,16.8,16.8,0,0,1-6.18,1.44q-.24,0-.78-.06t-.54-.54q0-.48.66-.9l1-.66q7.44-4.56,14.46-9.6A81.8,81.8,0,0,0,51.36,87q1-1.08,2-2.22A7.1,7.1,0,0,0,55,82.32a.6.6,0,0,0-.12-.6q-1.08-1.92-2.64-5t-3-6.54q-1.44-3.42-2.46-6.6a17.9,17.9,0,0,1-1-5.22,5,5,0,0,1,.06-.66q.06-.42.42-.42t1.38,1.32q1,1.32,2.28,3.24t2.76,4.26q1.5,2.34,2.82,4.32t2.4,3.42q1.08,1.44,1.68,1.56,1,.24,1.26-.06l.9-.9a38.08,38.08,0,0,0,2.58-4.8q1.86-3.84,3.78-8.28T71.4,53a20.47,20.47,0,0,0,1.44-5,1.38,1.38,0,0,0-.48-1.26,2.76,2.76,0,0,0-1.44-.3L68,46.5l-5,.12q-2.82.06-6,.18T51.18,47q-2.7.06-4.44.18l-1.86.12a12,12,0,0,0-1.8,2.94Q41.76,52.8,40,56.64T36,65q-2.16,4.56-4.2,8.76t-3.9,7.62a40.44,40.44,0,0,1-3.06,5q-2.52,3.12-5.34,6.24t-5.82,5.88q-.84.72-2.4,2.16T7.92,103.5a39.13,39.13,0,0,1-3.48,2.4,5.74,5.74,0,0,1-2.76,1q-.6,0-.6-.48a1.34,1.34,0,0,1,.12-.6,1.88,1.88,0,0,1,.36-.48Q7.68,97.2,11.88,90.24a107.31,107.31,0,0,0,7.14-14,116,116,0,0,0,5-14.88q2.1-7.86,4-17.82.6-3.24,1.08-6.48t1.08-6.48q.24-1.08.42-2.28A13.56,13.56,0,0,1,31.2,26a5.9,5.9,0,0,1,.72-1.26,2.17,2.17,0,0,0,.48-1.26V1.2A1.06,1.06,0,0,1,33.6,0q1.2,0,4,.12t5.7.36Q46.2.72,48.78,1a20.48,20.48,0,0,1,3.66.66L53,2a.58.58,0,0,1,.36.54q0,.12-.36.48l-.84.84-.9.9-.54.54-.36.84a89.43,89.43,0,0,1-1.92,14.64Q46.92,28,45.6,35.28q-.12.6-.36,2.28T44.88,41a16.4,16.4,0,0,0,.06,3.18q.18,1.38,1,1.38,5.76,0,11.52-.42T69,44.76q.6,0,1.38.06a1.81,1.81,0,0,0,1.26-.3l1.68-1.62q1.32-1.26,2.82-2.64t2.76-2.4a4.28,4.28,0,0,1,1.62-1A6.69,6.69,0,0,1,83.1,38.7l2.46,2.46,1.56,1.5L89.58,45q1.26,1.2,2.28,2.28t1,1.44a.73.73,0,0,1-.18.54l-.42.42a40.39,40.39,0,0,0-6.36,7.56q-2.64,4.08-5,8.34T76.26,74a50.81,50.81,0,0,1-5.58,8Zm36-57.84a1.52,1.52,0,0,1-.3.9.92.92,0,0,1-.78.42H52.44A1.48,1.48,0,0,1,51.6,26a7,7,0,0,1-.72-.6.81.81,0,0,1,.6-.24h29.4q1.2,0,2.82-1.86a49.81,49.81,0,0,0,3.18-4.08Q88.44,17,89.7,15.18t1.86-1.86a4.21,4.21,0,0,1,1.32.78q1.08.78,2.64,2l3.36,2.58q1.8,1.38,3.42,2.7t2.76,2.34A10.35,10.35,0,0,1,106.44,25.08Z"/></g></g></svg>