<svg xmlns="http://www.w3.org/2000/svg" viewBox="0 0 110.52 111.24"><defs><style>.cls-1{fill:#e1c96a;}</style></defs><title>yellow-2</title><g id="レイヤー_2" data-name="レイヤー 2"><g id="レイヤー_1-2" data-name="レイヤー 1"><path class="cls-1" d="M26.52,86.76q-1.68,1.8-3.6,4.14t-3.84,4.86q-1.92,2.52-3.6,5t-3,4.68q-.36.6-1,1.56a19.63,19.63,0,0,1-1.32,1.86,14.67,14.67,0,0,1-1.5,1.62,2.27,2.27,0,0,1-1.5.72l-1.38-2.7q-1.14-2.22-2.4-4.8T1.2,99.06a14.61,14.61,0,0,1-1-2.34q0-1,2-1.68t4.32-1.38q2.34-.66,4.32-1.38t2-1.68V56q0-1.32-2-1.38a43.36,43.36,0,0,0-4.44.12Q4,55,2,55T0,54q0-.6,1.32-.78a22.39,22.39,0,0,1,3-.18q1.68,0,3.24.12t2.16.12q.36,0,1.38-1.38t2.28-3.12q1.26-1.74,2.46-3.36a9.4,9.4,0,0,1,1.92-2.1l.84.24a27.68,27.68,0,0,0,3.24,2.64q2.16,1.56,4.44,3.3t4.14,3.3a7.48,7.48,0,0,1,2.22,2.52q-.12.6-1,.78l-2,.42a10.87,10.87,0,0,0-1.92.6,1.32,1.32,0,0,0-.84,1.32V85.92ZM5.64,5.88q0-1.2,1.08-1.2a23.13,23.13,0,0,1,6.6,1.08A26.91,26.91,0,0,1,20,8.82a19.37,19.37,0,0,1,5.22,4.8,10.29,10.29,0,0,1,2.1,6.3A9.35,9.35,0,0,1,25.5,25.5a6,6,0,0,1-5.1,2.58q-2.52,0-5.16-2.64a32.18,32.18,0,0,1-4.8-6.24A40.63,40.63,0,0,1,7,11.88,19,19,0,0,1,5.64,5.88ZM101.4,110a1.38,1.38,0,0,0-.42.12,1.38,1.38,0,0,1-.42.12l-43.68-.6a31.61,31.61,0,0,1-8.46-1.38,40.81,40.81,0,0,1-9.24-3.9,29.17,29.17,0,0,1-7.44-6,11.51,11.51,0,0,1-3.06-7.8q0-1.08,1.2-1.08a8.79,8.79,0,0,1,4,1.08Q36,91.68,38.34,93t4.74,2.4A11.87,11.87,0,0,0,48,96.48h58.08a4.71,4.71,0,0,1,1,.12.65.65,0,0,1,.54.72,1.26,1.26,0,0,1-.18.66,2.79,2.79,0,0,1-.42.54,27.69,27.69,0,0,0-2.88,5.76A31.71,31.71,0,0,1,101.4,110ZM51,47.76l-.48-.48L50,46.8a7.73,7.73,0,0,1-.72-3.3q-.24-2.7-.6-5.7a37.14,37.14,0,0,0-1-5.4Q47,30,45.72,30H31.92q-1.2,0-1.2-1a.69.69,0,0,1,.48-.24H53.64q1,0,2.46,1.68a30,30,0,0,1,2.94,4,41.66,41.66,0,0,1,2.46,4.44,8.67,8.67,0,0,1,1,3.12,12.64,12.64,0,0,1-.3,2.1q-.3,1.5-.72,3.06a16.58,16.58,0,0,1-1,2.82q-.6,1.26-1.2,1.26H35A.6.6,0,1,1,35,50H42.6q3.72,0,7.56-.12h.48a4.21,4.21,0,0,0,.6-1.56ZM33.36,80q1.56,0,5.4-.06l8-.12q4.14-.06,7.68,0a24.06,24.06,0,0,1,4.38.3,2.79,2.79,0,0,1-.72.48,1.84,1.84,0,0,1-.72.24h-24l-.48-.48ZM39.72,14.4H58.08l.36.36-.36.48H39.72l-.48-.48Zm0,50.4H58l.84.36.24.36a11.09,11.09,0,0,1-3.18.24H49.92q-3.24,0-6.18-.06t-4-.06l-.48-.48Zm17.88-36,.48-.36a.69.69,0,0,1,.48.24.72.72,0,0,1-.48.48Zm45-13.68q-.84.72-4.2,1T91,16.32q-4,0-7.74-.12T78,16.08q-1.32,0-1.38,2.1a38.91,38.91,0,0,0,.18,4.68A38.91,38.91,0,0,1,77,27.54q-.06,2.1-1.38,2.1H61.68a.65.65,0,0,1-.48-.3,3.15,3.15,0,0,1-.36-.54,8.26,8.26,0,0,1,.48-1,3.39,3.39,0,0,0,.36-1,9.1,9.1,0,0,0,.12-2.58q-.12-1.38-.12-2.7,0-5-.42-10.14T60.84,1.2A1.06,1.06,0,0,1,62,0q1,0,3.18.12t4.62.36q2.4.24,4.5.54a13.06,13.06,0,0,1,2.94.66l.6.3a.58.58,0,0,1,.36.54,1.67,1.67,0,0,1-.66,1.2,1.88,1.88,0,0,0-.66,1.44V12.6l.36.72.84.36a8.77,8.77,0,0,1,1.08.06,8.77,8.77,0,0,0,1.08.06,5.25,5.25,0,0,0,3.48-1.32,19.62,19.62,0,0,0,2.82-2.94q1.26-1.62,2.22-3t1.68-1.38a6.8,6.8,0,0,1,2.7,1.26,46.71,46.71,0,0,1,4.08,2.94Q99.36,11,101,12.6t1.62,2.28ZM75.6,50l.84-.84a5.22,5.22,0,0,0,.42-1.8Q77,46,77.1,43.92t.18-4.44q.12-2.4.3-4.56t.48-3.9a5.37,5.37,0,0,1,.9-2.46,15.07,15.07,0,0,1,2-.18q1.44-.06,3.06-.06t3.18.06q1.56.06,2.4.06.48,0,1.62-1.2a35,35,0,0,0,2.34-2.76q1.2-1.56,2.28-3t1.56-2a1.05,1.05,0,0,1,.3-.12,1.05,1.05,0,0,0,.3-.12q.36-.12,2.34,1.26t4.2,3.12q2.22,1.74,4.08,3.42t1.86,2.28q0,.72-1,.72H91.68a1.1,1.1,0,0,0-1,.54,2,2,0,0,0-.36,1.14,1.27,1.27,0,0,0,.84,1.14,8.76,8.76,0,0,0,1.8.66q1,.24,1.8.48t.84.6q0,1-2.52,2.58L87.6,40.68q-3,1.92-5.52,3.78t-2.52,3.06q0,.36.9.78a12.74,12.74,0,0,0,2,.72,20.91,20.91,0,0,0,2.16.48,11,11,0,0,0,1.44.18q.48,0,1.62-1.26t2.4-2.82q1.26-1.56,2.4-2.82t1.74-1.26a5.12,5.12,0,0,1,2.34,1.14Q98.16,43.8,100,45.3t3.6,2.94q1.74,1.44,2.46,1.92l.36.6-.36.6A98.17,98.17,0,0,1,92,52q-7-.18-14.22-.18a1.06,1.06,0,0,0-1.2,1.2q0,3.24.24,8.16t.3,10.08q.06,5.16-.12,9.78a38,38,0,0,1-.9,7.5,3.21,3.21,0,0,1-1.8,2A12.85,12.85,0,0,1,71,91.68a27.75,27.75,0,0,1-3.6.48q-1.8.12-2.88.12-.72,0-1.68-.06t-1-1.14q0-2,.12-4.38a14.48,14.48,0,0,0-.36-4.26,6.17,6.17,0,0,0-.48-1.2,2.76,2.76,0,0,1-.36-1.08,2,2,0,0,1,.42-1.26,2,2,0,0,0,.42-1.26v-10a1.47,1.47,0,0,0-.42-1,1.6,1.6,0,0,1-.42-1.08,2.45,2.45,0,0,1,.42-1.44,2.45,2.45,0,0,0,.42-1.44V51.84q0-.84,1.8-1.14a29.42,29.42,0,0,1,4-.36q2.22-.06,4.38,0t2.88.06Zm5,30.84a1.37,1.37,0,0,1-.78-.3.83.83,0,0,1-.42-.66,4,4,0,0,1,1.38-.18q1.26-.06,2.76-.06h4.74l.84-.36A54.84,54.84,0,0,0,92.82,75a43,43,0,0,1,3.78-4.32l.72-.24a1.32,1.32,0,0,1,.84.48q.72.6,2.34,1.74t3.36,2.46q1.74,1.32,3.18,2.46a11.84,11.84,0,0,1,1.8,1.62.62.62,0,0,1-.12,1,8.76,8.76,0,0,1-1.08.66ZM91.68,56q.24-.12.6.18l.48.42q2.64,1.92,5.1,3.9l5,4,.36.6v.12l-.24.36a34,34,0,0,1-10.26.84l-10.38-.72a8.42,8.42,0,0,1-1.14-.12q-.78-.12-.78-.72a.89.89,0,0,1,.48-.78l.84-.54q2.52-1.44,4.92-3.12A20.8,20.8,0,0,0,91,56.4Z"/></g></g></svg>