<svg xmlns="http://www.w3.org/2000/svg" viewBox="0 0 527.29 129.11"><defs><style>.cls-1{fill:#e8e4e2;}</style></defs><title>アセット 32</title><g id="レイヤー_2" data-name="レイヤー 2"><g id="予備"><path class="cls-1" d="M88.11,114.93,6.39,112.29c-3.61-.13-6.39-2.5-6.39-6.11v-.28L1.39,33.49c0-4.3,2.64-7.64,7.5-7.64h.28l69.77,1.39c11.67.28,20.15,6.25,20.15,18.62v1.53L96,107.71c-.27,5.28-4,7.22-7.5,7.22ZM65.88,60.73v-.41c0-3.9-2.23-6-5.29-6L29.88,53.23l-.69,33.21L64.9,87.69Z"/><path class="cls-1" d="M141.9,81.16c-1.53,0-3.48-1.39-3.48-3.19V52.67a3.44,3.44,0,0,1,3.34-3.05l94.37.13a3.46,3.46,0,0,1,3.33,3.2V78.11c0,1.66-1.81,2.91-3.33,2.91Z"/><path class="cls-1" d="M301.45,126.47a2.67,2.67,0,0,1-2.78-2.64V6.67a2.79,2.79,0,0,1,2.78-2.78h27.38a2.67,2.67,0,0,1,2.64,2.78V54.34l7.22-10a4.08,4.08,0,0,1,3.62-1.8c4.17,0,26.26,5.56,38.36,12.09,1.52.83,2.22,1.8,2.22,2.92s-.56,2.08-15.71,26.82a3,3,0,0,1-2.64,1.53,5.39,5.39,0,0,1-2.64-.84c-6.95-4.3-21.26-12-30.43-16.39v55.17a2.55,2.55,0,0,1-2.64,2.64ZM350.79,32.1h-.7c-2.22,0-3.34-.69-3.89-2.36L343,18.21a10.25,10.25,0,0,1-.28-1.67c0-1.81,1.12-2.36,2.78-2.64l11-1.39h.42c2.08,0,3.48,1.81,4,3.61l2.5,11.26a5.13,5.13,0,0,1,.28,1.25c0,1.67-1.11,2.5-3.61,2.78Zm28.9,1a3.19,3.19,0,0,1-2.22,1,3.85,3.85,0,0,1-2.64-1.39l-9.45-10.15a3.11,3.11,0,0,1-1-2.08,2.89,2.89,0,0,1,1.52-2.22l7.65-5.84a3.47,3.47,0,0,1,2.22-.7,5.13,5.13,0,0,1,3.2,1.39l8.75,7.79.42.27a3.1,3.1,0,0,1,1.11,2.23A3.33,3.33,0,0,1,387.75,26Z"/><path class="cls-1" d="M481.43,104.79l-.56,17.09c0,2.09-1.67,4.17-3.33,4.31l-27,2.92h-.41a3.4,3.4,0,0,1-3.48-3.2l.56-20L414.58,107h-.42c-3.75,0-6.39-1.67-6.53-5.42l-2.08-72.54v-.28a6.06,6.06,0,0,1,5.83-5.84l37.11-1.53.42-18.9c0-1.67.83-2.5,2.64-2.5l29,.83c1.67,0,2.64,1.39,2.64,3.06L483,20l21.4-.83h1.39c13.48,0,21.26,7.92,21.26,19.18L527.29,96c0,5.28-3.47,7.37-7.37,7.51Zm-29.6-59.62-17,.28,1,39.74,15.43-.41Zm43.5,5.42c0-2.78-.56-6.12-5.43-6.12h-.27l-10.57.14-.55,39.33,17.23-.55Z"/></g></g></svg>