<svg xmlns="http://www.w3.org/2000/svg" viewBox="0 0 118.39 28.74"><defs><style>.cls-1{fill:#e8e4e2;}</style></defs><title>text</title><g id="レイヤー_2" data-name="レイヤー 2"><g id="レイヤー_1-2" data-name="レイヤー 1"><path class="cls-1" d="M17.85,28.49a2.8,2.8,0,0,1-.5,0,2.21,2.21,0,0,1-2.44-2.29l-.53-5.85-5.13,0,2.66,2.54a.85.85,0,0,1,.21.62.82.82,0,0,1-.3.71L5.44,28.46a1.73,1.73,0,0,1-2.16-.22l-3-3.19A.9.9,0,0,1,0,24.44a.76.76,0,0,1,.43-.65L6.8,20.32h-3A1.27,1.27,0,0,1,2.44,19V18.9L2.78,2.23A2,2,0,0,1,4.89,0H5L21.71.19C24.5.22,26.48,1.82,26.48,5v.44L25.83,18c-.1,1.67-1,2.42-2.32,2.42h-2l.18,2L27,21.81c.1,0,.16,0,.25,0a.6.6,0,0,1,.68.58l.43,4.21v.12a.92.92,0,0,1-.86,1Zm1-20.76V7.58c0-1.12-.34-1.64-1.3-1.67L9.46,5.57,9.4,7.21,15.74,8c.38,0,.5.22.5.43a.88.88,0,0,1-.06.28l-.37,1.15c-.1.34-.34.46-.72.46h-.24L9.31,9.59l-.06,2,7.36-.34h.06c.28,0,.43.19.43.49a.86.86,0,0,1,0,.28l-.18,1.09c-.06.37-.37.58-1,.61l-6.77.31-.07,2.08,9.5-.16Z"/><path class="cls-1" d="M56,10.58c-.09.62-.68.65-1,.8-3.71,1.95-5.75,5.35-5.75,8.35a5.76,5.76,0,0,0,2.26,4.68.73.73,0,0,1,.3.55c0,.4-.49.74-.74.93-3.18,2.07-3.65,2.35-4,2.35-.68,0-4.89-3.25-4.89-8.69a18.42,18.42,0,0,1,3.16-9.47c-3.13-.31-7.7-.92-10.86-1.26-.46-.07-.71-.28-.71-.68a.77.77,0,0,1,0-.25l.9-4.33c.12-.59.37-.81,1.05-.81a2.7,2.7,0,0,1,.46,0L55.77,5a1,1,0,0,1,.93,1c0,.09,0,.16,0,.22Z"/><path class="cls-1" d="M77.49,25.52a.55.55,0,0,1-.43-.5.71.71,0,0,1,.12-.4,43.87,43.87,0,0,0,2.11-4.82c-1.12-.5-2.23-.93-3.34-1.3a19.78,19.78,0,0,1-.81,2.84,7.24,7.24,0,0,1-6.59,4.8c-4,0-5.78-3.62-5.78-6.93a7.13,7.13,0,0,1,7-7.46h.41c0-3.61-.1-3.71-.84-3.71a4.69,4.69,0,0,0-.56.06c-1.08.16-3.77.5-4,.5-.62,0-.71-.28-.74-.56,0,0-.5-2.87-.62-4.17V3.65c0-.46.15-.62.46-.65.47,0,5.05-.46,8.32-.74.31,0,.62,0,.9,0,2.41,0,3.56,1,3.56,3.06,0,.93,0,1.92,0,3,0,1.33,0,2.78-.09,4.21A43.86,43.86,0,0,1,81.42,14,19.51,19.51,0,0,0,82,12a.71.71,0,0,1,.71-.4,1.52,1.52,0,0,1,.34.06l4.7,1.86a.87.87,0,0,1,.65.86A11.75,11.75,0,0,1,87.73,17c2,1.21,2.45,1.58,2.45,2.2s-2.11,5.5-3.25,5.5a.6.6,0,0,1-.43-.18c-.47-.44-1-.84-1.46-1.24-2,3.9-2.35,4.08-2.66,4.08a1.08,1.08,0,0,1-.4-.09Zm-7.79-8c-1,.09-1.73.65-1.73,1.6s.65,1.09.77,1.09c1,0,1.21-1.27,1.42-2.72A2.22,2.22,0,0,0,69.7,17.48Z"/><path class="cls-1" d="M103.23,15.34a.88.88,0,0,1-.92-1c0-1.23,0-3.46,0-4.61,0-.65-.31-1-.93-1h-.13c-.68.06-3.06.34-3.46.34s-.8-.21-.87-.71c0,0-.43-3.09-.58-4.24V4c0-.4.34-.5.65-.53.52,0,5-.46,7.88-.55h.31c3.31,0,3.56,1.33,3.56,4.73,0,.83,0,1.64,0,2,8.78.09,9.71,6.06,9.71,8,0,6.83-6.4,10.14-11.91,10.14-5.07,0-7.85-2.69-7.85-5.66a5,5,0,0,1,5.25-4.91c5.17,0,6,3.58,6.19,4.94A3.88,3.88,0,0,0,111.62,19c0-3.28-2.76-3.77-5.39-3.77-.89,0-1.85.06-2.93.15ZM105.65,23c0-1.64-.84-2.07-1.67-2.07-.65,0-1,.37-1,.8,0,.68,1,1.58,2.66,1.64Z"/></g></g></svg>